<?xml version="1.0" encoding="utf-8"?>
<!-- Generator: Adobe Illustrator 24.0.2, SVG Export Plug-In . SVG Version: 6.00 Build 0)  -->
<svg version="1.1" id="Layer_1" xmlns="http://www.w3.org/2000/svg" xmlns:xlink="http://www.w3.org/1999/xlink" x="0px" y="0px"
	 viewBox="0 0 738 360" style="enable-background:new 0 0 738 360;" xml:space="preserve">
<style type="text/css">
	.st0{display:none;}
	.st1{display:inline;fill:#EBEBEB;}
	.st2{fill:#F5F5F5;}
	.st3{fill:#E0E0E0;}
	.st4{fill:#EBEBEB;}
	.st5{fill:#E8505B;}
	.st6{opacity:0.2;}
	.st7{opacity:0.3;}
	.st8{fill:#FFFFFF;}
	.st9{fill:#FAFAFA;}
	.st10{fill:#263238;}
	.st11{fill:#455A64;}
	.st12{opacity:0.4;}
	.st13{opacity:0.8;}
	.st14{fill:#FFBE9D;}
	.st15{opacity:0.6;}
	.st16{fill:none;stroke:#4E585D;stroke-width:5.000000e-02;stroke-miterlimit:10;}
	.st17{fill:#EB996E;}
	.st18{font-family:'Arial-Black';}
	.st19{font-size:45.1041px;}
	.st20{font-size:52.0432px;}
</style>
<g id="Background_Simple" class="st0">
	<path class="st1" d="M309.8,79.2c-11.4-19.6-38-28.8-59-20.2c-9.5,3.9-17.9,10.9-28.1,12.3c-16.3,2.4-30.8-9.9-41.7-22.1
		c-11-12.2-22.5-26.1-38.7-28.9c-21-3.6-40.3,13.8-49.1,33.1c-14.8,32.5-8.4,73.4,15.5,99.9c23,25.4,56.2,42,95.9,40.5l0,0
		c21.1-1.9,31.6-4.2,51.8-10.7s37.5-26.1,49.2-43.7S320.4,97.5,309.8,79.2z"/>
	<path class="st1" d="M475.8,46.9c-12.2-13.5-29.6-22.1-47.7-23.7c-15.8-1.3-37-1.4-51.6,6.1l0,0l0,0c0,0,0,0-0.1,0
		c-14.2,6.8-27,17.7-32.2,30.6s-2.9,28.6,5.9,39.3c8.9,10.7,24.1,15.8,37.6,12.3s24.9-14.7,38.8-14.5c13.5,0.2,25.2,11.3,38.7,10.5
		c12.8-0.8,22.9-13.1,24-25.8C490.5,68.9,484.4,56.4,475.8,46.9z"/>
	<path class="st1" d="M650.6,69.1c-10.1-14.4-32.3-18.6-47-8.8l-2.7,2c-13.6,11.2-16.2,33.6-5.3,47.5c10.8,13.9,33.2,17,47.4,6.5
		C657.1,105.8,660.7,83.6,650.6,69.1z"/>
</g>
<g id="Sheet">
</g>
<g id="Stopwatch">
</g>
<g id="Video">
</g>
<g id="Photos">
</g>
<g id="Light_Bulb">
</g>
<g id="Character">
</g>
<g id="Background_Complete">
	<g>
		<g>
			<g>
				<g>
					<g>
						<path class="st2" d="M82.3,234.7l24.1-3.7c2,13.2-7.2,25.8-20.4,27.8s-25.8-7.2-27.8-20.4c-2-13.2,7.2-25.8,20.4-27.8
							c2.1-0.3,4.2-0.4,6.4-0.1L82.3,234.7z"/>
					</g>
				</g>
				<g>
					<g>
						<path class="st3" d="M90.1,210.6l-2.9,18.7l18.4-3.4C105.5,225.8,102.8,215.3,90.1,210.6z"/>
					</g>
				</g>
			</g>
			<g>
				<g>
					<g>
						<g>
							<g>
								<path class="st4" d="M136.7,170.3c1.5,0,2.9,0.3,4.3,0.7l2.8-2.9l5.7,3.5l-1.3,3.8c1,1,1.9,2.2,2.6,3.5l4-0.1l1.6,6.5
									l-3.6,1.8c0,1.5-0.3,2.9-0.7,4.3l2.9,2.8l-3.5,5.7l-3.8-1.3c-1,1-2.2,1.9-3.5,2.6l0.1,4l-6.5,1.6l-1.8-3.6
									c-1.5,0-2.9-0.3-4.3-0.7l-2.8,2.9l-5.7-3.5l1.3-3.8c-1-1-1.9-2.2-2.6-3.5l-4,0.1l-1.6-6.5l3.6-1.8c0-1.5,0.3-2.9,0.7-4.3
									l-2.9-2.8l3.5-5.7l3.8,1.3c1-1,2.2-1.9,3.5-2.6l-0.1-4l6.5-1.6L136.7,170.3L136.7,170.3z M134.9,179.7
									c-3.8,0.9-6.2,4.8-5.2,8.6c0.9,3.8,4.8,6.2,8.6,5.2c3.8-0.9,6.2-4.8,5.2-8.6C142.6,181.1,138.8,178.8,134.9,179.7z"/>
							</g>
						</g>
					</g>
				</g>
				<g>
					<g>
						<g>
							<g>
								<g>
									<path class="st4" d="M134.9,179.7c0,0,0.6-0.2,1.7-0.3c1.1,0,2.9,0.3,4.5,1.6c0.8,0.6,1.6,1.5,2.1,2.6s0.8,2.4,0.6,3.8
										c-0.1,0.7-0.2,1.4-0.5,2c-0.3,0.7-0.7,1.3-1.1,1.9c-0.9,1.2-2.3,2-3.9,2.4c-1.5,0.4-3.2,0.2-4.6-0.4
										c-0.7-0.3-1.3-0.7-1.9-1.1c-0.6-0.5-1-1-1.4-1.6c-0.8-1.1-1.1-2.5-1.2-3.7c-0.1-1.2,0.2-2.4,0.6-3.3c0.9-1.9,2.3-3,3.3-3.5
										C134.3,179.8,134.9,179.7,134.9,179.7s-0.6,0.2-1.6,0.7s-2.3,1.6-3.1,3.4c-0.4,0.9-0.6,2-0.5,3.2s0.4,2.4,1.2,3.5
										c0.4,0.5,0.8,1,1.3,1.5c0.5,0.4,1.1,0.8,1.8,1.1c1.3,0.6,2.8,0.7,4.3,0.3s2.8-1.2,3.7-2.3c0.5-0.5,0.8-1.1,1.1-1.8
										c0.3-0.6,0.4-1.3,0.5-1.9c0.2-1.3-0.1-2.6-0.6-3.6c-0.5-1.1-1.2-1.9-2-2.6c-1.6-1.3-3.2-1.6-4.3-1.6
										C135.5,179.6,134.9,179.8,134.9,179.7z"/>
								</g>
							</g>
						</g>
					</g>
				</g>
			</g>
			<g>
				<g>
					<g>
						<g>
							<g>
								
									<rect x="186.3" y="166.5" transform="matrix(0.9961 -8.847992e-02 8.847992e-02 0.9961 -15.4188 19.4576)" class="st2" width="50.9" height="34.3"/>
							</g>
						</g>
					</g>
					<g>
						<g>
							<g>
								<g>
									<path class="st3" d="M235.5,164.4c0,0-0.1,0.2-0.4,0.5c-0.3,0.3-0.8,0.8-1.3,1.4c-1.2,1.2-2.8,2.9-4.8,5
										c-4.2,4.2-9.9,9.9-16.2,16.3l-0.1,0.1l-0.2-0.1c-0.1-0.1-0.3-0.2-0.4-0.3c-7.5-5-14.3-9.6-19.3-12.9
										c-2.4-1.6-4.4-3-5.8-3.9c-0.7-0.5-1.2-0.8-1.6-1.1c-0.4-0.3-0.5-0.4-0.5-0.4s0.2,0.1,0.6,0.3c0.4,0.3,0.9,0.6,1.6,1
										c1.4,0.9,3.4,2.2,5.9,3.8c5,3.3,11.8,7.8,19.4,12.8c0.1,0.1,0.3,0.2,0.4,0.3h-0.3c6.3-6.3,12.1-12,16.3-16.2
										c2.1-2,3.7-3.7,5-4.8c0.6-0.5,1-1,1.4-1.3C235.3,164.5,235.5,164.3,235.5,164.4z"/>
								</g>
							</g>
						</g>
					</g>
				</g>
				<g>
					<g>
						<g>
							<g>
								<path class="st3" d="M187.9,203c-0.1-0.1,3.3-5.1,7.6-11.2c4.3-6.1,7.9-11,8-10.9s-3.3,5.1-7.6,11.2
									C191.6,198.2,188,203.1,187.9,203z"/>
							</g>
						</g>
					</g>
				</g>
				<g>
					<g>
						<g>
							<g>
								<path class="st3" d="M220.2,178.9c0.1-0.1,4.3,4.2,9.3,9.6c5.1,5.4,9.1,9.9,9,9.9c-0.1,0.1-4.3-4.2-9.3-9.6
									C224.2,183.5,220.1,179,220.2,178.9z"/>
							</g>
						</g>
					</g>
				</g>
			</g>
			<g>
				<g>
					<g>
						<g>
							<g>
								<g>
									<g>
										<g>
											<path class="st5" d="M363.2,191.1l-32.3,17c-2.2,1.2-5,0.3-6.2-1.9l-23.5-44.7c-1.2-2.2-0.3-5,1.9-6.2l20.5-10.8l24.4,8
												l17,32.4C366.3,187.2,365.4,189.9,363.2,191.1z"/>
										</g>
									</g>
								</g>
							</g>
						</g>
					</g>
					<g>
						<g>
							<g>
								<g>
									<g>
										<g>
											<path class="st5" d="M323.6,144.6l6.6,12.6c1.1,2.1,3.7,2.9,5.7,1.8l12.1-6.4L323.6,144.6z"/>
										</g>
									</g>
								</g>
							</g>
						</g>
					</g>
					<g class="st6">
						<g>
							<g>
								<g>
									<g>
										<g>
											<path d="M331,158.2c0,0,1.4,3.1,5.4,2.3c0.2,0,0.3-0.1,0.4-0.1c1.7-0.5,13.1-4.2,13-4.4c-0.1-0.3-1.8-3.4-1.8-3.4
												l-12.1,6.4C336,158.9,332.9,160.4,331,158.2z"/>
										</g>
									</g>
								</g>
							</g>
						</g>
					</g>
					<g class="st7">
						<g>
							<g>
								<g>
									<g>
										<g>
											<path class="st8" d="M323.6,144.6l6.6,12.6c1.1,2.1,3.7,2.9,5.7,1.8l12.1-6.4L323.6,144.6z"/>
										</g>
									</g>
								</g>
							</g>
						</g>
					</g>
				</g>
				<g>
					<g>
						<g>
							<g>
								<g>
									<path class="st9" d="M327.3,158.1c0.1,0.2-3.2,2.1-7.3,4.2c-4.1,2.2-7.5,3.8-7.6,3.6s3.2-2.1,7.3-4.2
										C323.8,159.5,327.2,157.9,327.3,158.1z"/>
								</g>
							</g>
						</g>
					</g>
				</g>
				<g>
					<g>
						<g>
							<g>
								<g>
									<path class="st9" d="M340.7,160.1c0.1,0.2-5.3,3.2-12.1,6.8c-6.8,3.6-12.4,6.3-12.4,6.2c-0.1-0.2,5.3-3.2,12.1-6.8
										C335,162.7,340.6,159.9,340.7,160.1z"/>
								</g>
							</g>
						</g>
					</g>
				</g>
				<g>
					<g>
						<g>
							<g>
								<g>
									<path class="st9" d="M346,164.9c0.1,0.2-5.8,3.4-13.2,7.3c-7.4,3.9-13.5,6.9-13.5,6.8c-0.1-0.2,5.8-3.4,13.2-7.3
										C339.8,167.7,345.9,164.7,346,164.9z"/>
								</g>
							</g>
						</g>
					</g>
				</g>
				<g>
					<g>
						<g>
							<g>
								<g>
									<path class="st9" d="M348.9,170.5c0.1,0.2-5.8,3.4-13.2,7.3c-7.4,3.9-13.5,6.9-13.5,6.8c-0.1-0.2,5.8-3.4,13.2-7.3
										C342.8,173.3,348.9,170.3,348.9,170.5z"/>
								</g>
							</g>
						</g>
					</g>
				</g>
				<g>
					<g>
						<g>
							<g>
								<g>
									<path class="st9" d="M351.9,176.1c0.1,0.2-5.8,3.4-13.2,7.3c-7.4,3.9-13.5,6.9-13.5,6.8c-0.1-0.2,5.8-3.4,13.2-7.3
										C345.7,178.9,351.8,175.9,351.9,176.1z"/>
								</g>
							</g>
						</g>
					</g>
				</g>
				<g>
					<g>
						<g>
							<g>
								<g>
									<path class="st9" d="M354.8,181.7c0.1,0.2-5.8,3.4-13.2,7.3c-7.4,3.9-13.5,6.9-13.5,6.8c-0.1-0.2,5.8-3.4,13.2-7.3
										C348.7,184.5,354.7,181.5,354.8,181.7z"/>
								</g>
							</g>
						</g>
					</g>
				</g>
			</g>
			<g>
				<g>
					<g>
						<g>
							<g>
								<g>
									
										<rect x="240.6" y="226" transform="matrix(0.4483 -0.8939 0.8939 0.4483 -70.6506 342.696)" class="st10" width="3.3" height="5.1"/>
								</g>
							</g>
						</g>
						<g>
							<g>
								<g>
									<path class="st11" d="M242.8,225.1l-3,6l-4.9-2.5c0.5-2.4,1.5-4.4,3-6L242.8,225.1z"/>
								</g>
							</g>
						</g>
					</g>
					<g>
						<g>
							<g>
								<g>
									<path class="st10" d="M240.3,230.1c0,0.1-1.2-0.4-2.7-1.1c-1.4-0.7-2.5-1.3-2.5-1.4c0-0.1,1.2,0.4,2.7,1.1
										C239.3,229.4,240.4,230,240.3,230.1z"/>
								</g>
							</g>
						</g>
					</g>
					<g>
						<g>
							<g>
								<g>
									<path class="st10" d="M240.9,229c-0.1,0.1-1.2-0.5-2.7-1.2c-1.4-0.8-2.6-1.4-2.5-1.5s1.3,0.4,2.7,1.2
										C239.8,228.2,240.9,228.9,240.9,229z"/>
								</g>
							</g>
						</g>
					</g>
					<g>
						<g>
							<g>
								<g>
									<path class="st10" d="M241.7,227.5c-0.1,0.1-1.3-0.5-2.7-1.2c-1.4-0.8-2.6-1.5-2.5-1.5c0.1-0.1,1.3,0.4,2.7,1.2
										C240.6,226.6,241.7,227.4,241.7,227.5z"/>
								</g>
							</g>
						</g>
					</g>
					<g>
						<g>
							<g>
								<g>
									<path class="st10" d="M242.3,226c0,0.1-1.2-0.4-2.7-1.1c-1.4-0.7-2.5-1.4-2.5-1.5s1.2,0.4,2.7,1.1
										C241.3,225.3,242.4,225.9,242.3,226z"/>
								</g>
							</g>
						</g>
					</g>
				</g>
				<g>
					<g>
						<g>
							<g>
								<g>
									
										<rect x="277.3" y="211.8" transform="matrix(0.4009 -0.9161 0.9161 0.4009 -27.8945 384.277)" class="st10" width="5.1" height="3.3"/>
								</g>
							</g>
						</g>
						<g>
							<g>
								<g>
									<path class="st11" d="M283.3,213.9l-6.2-2.7l2.2-5c2.4,0.4,4.5,1.3,6.2,2.7L283.3,213.9z"/>
								</g>
							</g>
						</g>
					</g>
					<g>
						<g>
							<g>
								<g>
									<path class="st10" d="M278.2,211.7c-0.1,0,0.3-1.3,1-2.7c0.6-1.5,1.2-2.6,1.3-2.6c0.1,0-0.3,1.3-1,2.7
										C278.9,210.6,278.3,211.7,278.2,211.7z"/>
								</g>
							</g>
						</g>
					</g>
					<g>
						<g>
							<g>
								<g>
									<path class="st10" d="M279.4,212.2c-0.1,0,0.4-1.3,1.1-2.7c0.7-1.5,1.3-2.6,1.4-2.6s-0.3,1.3-1,2.8
										C280.1,211.1,279.5,212.2,279.4,212.2z"/>
								</g>
							</g>
						</g>
					</g>
					<g>
						<g>
							<g>
								<g>
									<path class="st10" d="M280.9,212.9c-0.1,0,0.4-1.3,1.1-2.8s1.3-2.6,1.4-2.6s-0.4,1.3-1.1,2.8
										C281.7,211.7,281,212.9,280.9,212.9z"/>
								</g>
							</g>
						</g>
					</g>
					<g>
						<g>
							<g>
								<g>
									<path class="st10" d="M282.4,213.5c-0.1,0,0.3-1.3,1-2.7c0.6-1.5,1.2-2.6,1.3-2.5c0.1,0-0.3,1.3-1,2.7
										C283.1,212.4,282.5,213.5,282.4,213.5z"/>
								</g>
							</g>
						</g>
					</g>
				</g>
				<g>
					<g>
						<g>
							<g>
								<g>
									
										<rect x="256.2" y="209.9" transform="matrix(0.9228 -0.3854 0.3854 0.9228 -62.1075 115.9359)" class="st10" width="3.9" height="6"/>
								</g>
							</g>
						</g>
						<g>
							<g>
								<g>
									<path class="st5" d="M261.4,210.3l-7.4,3.1l-2.5-6c2.3-1.7,4.8-2.8,7.4-3.1L261.4,210.3z"/>
								</g>
							</g>
						</g>
					</g>
					<g>
						<g>
							<g>
								<g>
									<path class="st10" d="M259,204.3c0.1,0-1.1,1.6-3.3,2.5c-2.2,0.9-4.1,0.7-4.1,0.7c0-0.1,1.9-0.1,4-1
										C257.6,205.6,258.9,204.2,259,204.3z"/>
								</g>
							</g>
						</g>
					</g>
					<g>
						<g>
							<g>
								<g>
									<path class="st10" d="M256.4,212.3c-0.1,0-0.7-1.1-1.3-2.5c-0.6-1.4-1-2.6-0.9-2.6s0.7,1.1,1.3,2.5
										C256.1,211.1,256.5,212.3,256.4,212.3z"/>
								</g>
							</g>
						</g>
					</g>
					<g>
						<g>
							<g>
								<g>
									<path class="st10" d="M257.9,211.8c-0.1,0-0.7-1.1-1.3-2.5c-0.6-1.4-1-2.6-0.9-2.7c0.1,0,0.7,1.1,1.3,2.5
										C257.5,210.5,258,211.7,257.9,211.8z"/>
								</g>
							</g>
						</g>
					</g>
					<g>
						<g>
							<g>
								<g>
									<path class="st10" d="M259.2,211.2c-0.1,0-0.7-1.1-1.3-2.5c-0.6-1.4-1-2.6-0.9-2.7c0.1,0,0.7,1.1,1.3,2.5
										S259.3,211.1,259.2,211.2z"/>
								</g>
							</g>
						</g>
					</g>
					<g>
						<g>
							<g>
								<g>
									<path class="st10" d="M260.4,210.7c-0.1,0-0.7-1.2-1.3-2.7c-0.6-1.5-1.1-2.8-1-2.9c0.1,0,0.7,1.2,1.3,2.7
										C260.1,209.4,260.5,210.6,260.4,210.7z"/>
								</g>
							</g>
						</g>
					</g>
					<g>
						<g>
							<g>
								<g>
									<path class="st10" d="M255.1,212.9c-0.1,0-0.7-1.2-1.3-2.7c-0.6-1.5-1.1-2.8-1-2.9c0.1,0,0.7,1.2,1.3,2.7
										C254.8,211.5,255.2,212.8,255.1,212.9z"/>
								</g>
							</g>
						</g>
					</g>
				</g>
				<g>
					<g>
						<g>
							<ellipse class="st5" cx="269" cy="240.2" rx="28.1" ry="28.1"/>
						</g>
					</g>
				</g>
				<g>
					<g>
						<g>
							<g>
								<ellipse class="st9" cx="268.9" cy="240" rx="23.6" ry="23.6"/>
							</g>
						</g>
					</g>
					<g>
						<g>
							<g>
								<g>
									<path class="st10" d="M290.7,230.9c0,0-0.1-0.1-0.2-0.3s-0.3-0.6-0.5-1c-0.1-0.2-0.2-0.5-0.4-0.7c-0.1-0.3-0.3-0.5-0.5-0.9
										c-0.4-0.6-0.8-1.3-1.4-2.1c-1.1-1.5-2.7-3.2-4.8-4.8c-2.1-1.6-4.9-3-8.1-3.8s-7-1.1-10.8-0.2c-0.9,0.2-1.9,0.4-2.9,0.8
										c-0.5,0.2-1,0.3-1.4,0.5c-0.5,0.2-0.9,0.4-1.4,0.7c-0.2,0.1-0.5,0.2-0.7,0.3l-0.7,0.4c-0.4,0.3-0.9,0.5-1.4,0.8
										c-0.8,0.7-1.8,1.3-2.5,2.1c-0.8,0.7-1.6,1.6-2.3,2.4c-0.4,0.4-0.7,0.9-1,1.4c-0.4,0.4-0.6,0.9-0.9,1.4
										c-0.6,1-1.1,2-1.6,3.1c-0.4,1.1-0.8,2.2-1.1,3.4c-0.5,2.3-0.8,4.8-0.6,7.3s0.8,4.9,1.7,7.3c1,2.3,2.4,4.5,4,6.4
										c1.6,1.9,3.5,3.4,5.6,4.7c1,0.7,2.1,1.1,3.2,1.6c1.1,0.4,2.2,0.8,3.3,1.1c0.6,0.1,1.1,0.3,1.7,0.4s1.1,0.2,1.7,0.2
										c1.1,0.1,2.2,0.2,3.3,0.1c1.1,0,2.2-0.2,3.2-0.4c0.5-0.1,1-0.3,1.6-0.4l0.8-0.2c0.3-0.1,0.5-0.2,0.7-0.3
										c0.5-0.2,1-0.4,1.5-0.5c0.5-0.2,0.9-0.4,1.4-0.6c0.9-0.4,1.8-1,2.6-1.5c3.3-2.1,5.7-5,7.4-7.9c1.7-2.9,2.6-5.8,3-8.5
										c0.4-2.6,0.3-4.9,0-6.8c-0.1-0.9-0.3-1.7-0.5-2.4c-0.1-0.3-0.2-0.7-0.2-1c-0.1-0.3-0.2-0.5-0.3-0.8
										c-0.2-0.5-0.3-0.8-0.4-1.1C290.8,231,290.7,230.9,290.7,230.9s0.1,0.1,0.1,0.4c0.1,0.3,0.2,0.6,0.4,1.1
										c0.1,0.2,0.2,0.5,0.3,0.8c0.1,0.3,0.2,0.6,0.3,1c0.2,0.7,0.4,1.5,0.5,2.4c0.3,1.9,0.4,4.2,0.1,6.8
										c-0.4,2.6-1.2,5.6-2.9,8.6c-1.7,2.9-4.1,5.8-7.5,8c-0.9,0.5-1.7,1.1-2.6,1.5c-0.5,0.2-0.9,0.5-1.4,0.7s-1,0.4-1.5,0.5
										c-0.3,0.1-0.5,0.2-0.8,0.3l-0.8,0.2c-0.5,0.1-1,0.3-1.6,0.4c-1.1,0.1-2.2,0.4-3.3,0.4c-1.1,0.1-2.2,0-3.4-0.1
										c-0.6-0.1-1.1-0.2-1.7-0.2c-0.6-0.1-1.1-0.2-1.7-0.4c-1.2-0.2-2.3-0.7-3.4-1.1c-1.1-0.5-2.2-1-3.2-1.6
										c-2.1-1.3-4.1-2.8-5.7-4.7c-1.6-1.9-3-4.1-4-6.5s-1.6-4.9-1.8-7.4s0.1-5,0.6-7.4c0.3-1.2,0.7-2.3,1.1-3.4
										c0.5-1.1,1-2.2,1.6-3.2c0.3-0.5,0.6-1,0.9-1.5c0.3-0.5,0.7-0.9,1-1.4c0.8-0.9,1.5-1.7,2.3-2.5s1.7-1.4,2.6-2.1
										c0.4-0.3,0.9-0.6,1.4-0.9l0.7-0.4c0.2-0.1,0.5-0.2,0.7-0.4c0.5-0.2,1-0.5,1.4-0.7c0.5-0.2,1-0.4,1.5-0.5
										c1-0.4,2-0.6,2.9-0.8c3.9-0.9,7.7-0.6,10.9,0.3c3.3,0.9,6,2.3,8.1,3.9c2.1,1.6,3.7,3.3,4.8,4.9c0.6,0.7,1,1.5,1.4,2.1
										c0.2,0.3,0.4,0.6,0.5,0.9c0.1,0.3,0.2,0.5,0.4,0.8c0.2,0.4,0.4,0.8,0.5,1C290.7,230.7,290.7,230.9,290.7,230.9z"/>
								</g>
							</g>
						</g>
					</g>
				</g>
				<g>
					<g>
						<g>
							<g>
								<g>
									<path class="st10" d="M287.4,231.8c-2,0.9-3.6,1.4-3.7,1.3c-0.1-0.1,1.4-1,3.4-2c1.9-0.9,3.6-1.5,3.7-1.3
										C290.9,230.1,289.4,231,287.4,231.8z"/>
								</g>
							</g>
						</g>
					</g>
					<g>
						<g>
							<g>
								<g>
									<path class="st10" d="M287.8,247.2c-2-0.8-3.6-1.5-3.5-1.7s1.8,0.3,3.8,1s3.6,1.4,3.5,1.7
										C291.5,248.4,289.8,248,287.8,247.2z"/>
								</g>
							</g>
						</g>
					</g>
					<g>
						<g>
							<g>
								<g>
									<path class="st10" d="M277.2,258.4c-0.9-2-1.5-3.6-1.3-3.7c0.1-0.1,1,1.4,2,3.4c1,1.9,1.6,3.6,1.3,3.7
										C279,261.8,278.1,260.3,277.2,258.4z"/>
								</g>
							</g>
						</g>
					</g>
					<g>
						<g>
							<g>
								<g>
									<path class="st10" d="M261.9,258.9c0.8-2,1.5-3.6,1.6-3.6c0.2,0.1-0.3,1.8-0.9,3.8c-0.7,2-1.4,3.6-1.6,3.6
										C260.7,262.6,261.1,260.9,261.9,258.9z"/>
								</g>
							</g>
						</g>
					</g>
					<g>
						<g>
							<g>
								<g>
									<path class="st10" d="M250.6,248.5c2-0.9,3.6-1.5,3.7-1.4s-1.4,1.1-3.3,2c-1.9,1-3.6,1.6-3.7,1.4
										C247.2,250.3,248.7,249.4,250.6,248.5z"/>
								</g>
							</g>
						</g>
					</g>
					<g>
						<g>
							<g>
								<g>
									<path class="st10" d="M249.9,233.2c2,0.7,3.6,1.5,3.6,1.6c-0.1,0.2-1.8-0.2-3.8-0.9c-2.1-0.6-3.7-1.4-3.6-1.6
										C246.2,232,247.9,232.4,249.9,233.2z"/>
								</g>
							</g>
						</g>
					</g>
					<g>
						<g>
							<g>
								<g>
									<path class="st10" d="M260.2,221.8c0.9,1.9,1.6,3.6,1.4,3.7c-0.1,0.1-1.1-1.4-2.1-3.3c-1-1.9-1.6-3.5-1.4-3.7
										C258.3,218.3,259.3,219.8,260.2,221.8z"/>
								</g>
							</g>
						</g>
					</g>
					<g>
						<g>
							<g>
								<g>
									<path class="st10" d="M275.5,220.9c-0.7,2-1.4,3.6-1.6,3.6s0.2-1.8,0.9-3.8c0.6-2.1,1.3-3.7,1.6-3.6
										C276.6,217.1,276.2,218.8,275.5,220.9z"/>
								</g>
							</g>
						</g>
					</g>
					<g>
						<g>
							<g>
								<g>
									<path class="st10" d="M287,231c-1.9,0.9-3.6,1.6-3.6,1.5c-0.1-0.1,1.4-1.1,3.3-2.1s3.5-1.7,3.6-1.5
										C290.4,229.1,289,230.1,287,231z"/>
								</g>
							</g>
						</g>
					</g>
				</g>
				<g>
					<g>
						<g>
							<g>
								<path class="st8" d="M250.6,219.9c0,0-0.3,0.4-0.9,1s-1.4,1.6-2.4,2.8c-1.8,2.4-4,6.2-4.9,10.8c-1,4.6-0.5,8.9,0.2,11.9
									c0.4,1.5,0.8,2.7,1.1,3.5s0.5,1.3,0.5,1.3s-0.1-0.1-0.2-0.3c-0.1-0.2-0.3-0.5-0.4-0.9c-0.3-0.8-0.8-2-1.2-3.5
									c-0.8-3-1.3-7.4-0.3-12.1c1-4.7,3.1-8.5,5.1-10.9c1-1.2,1.8-2.1,2.5-2.7c0.3-0.3,0.6-0.5,0.7-0.7
									C250.5,220,250.6,219.9,250.6,219.9z"/>
							</g>
						</g>
					</g>
				</g>
				<g>
					<g>
						<g>
							<g>
								<path class="st8" d="M257.2,215.5c0,0.1-1,0.7-2.4,1.5c-1.3,0.8-2.4,1.4-2.5,1.3c-0.1-0.1,0.9-0.9,2.3-1.7
									S257.2,215.4,257.2,215.5z"/>
							</g>
						</g>
					</g>
				</g>
				<g class="st12">
					<g>
						<g>
							<path d="M257,260.3c0,0,18.8,13.1,32.5-3.3c14.3-17.2-4.9-34.8-4.9-34.8s15.9,13.8,2.8,32.6c-3.3,4.7-8.1,6.7-11.9,7.9
								C265.5,265.7,257,260.3,257,260.3z"/>
						</g>
					</g>
				</g>
				<g>
					<g>
						<g>
							<path class="st3" d="M270.1,225.8c1.4,3.2,2.7,6.4,3.7,9.7c0.4,1.2,0.7,2.4,0.7,3.7s-0.3,2.6-1.2,3.5
								c-0.9,0.9-2.3,1.3-3.4,0.7L270.1,225.8z"/>
						</g>
					</g>
				</g>
				<g>
					<g>
						<g>
							<g>
								<g>
									<polygon class="st5" points="267.7,238.4 270.1,221.8 271.6,238.8 269.4,240.6 									"/>
								</g>
							</g>
						</g>
						<g class="st12">
							<g>
								<g>
									<polygon points="270.1,221.8 269.9,237.9 271.6,238.8 									"/>
								</g>
							</g>
						</g>
					</g>
					<g>
						<g>
							<g>
								<g>
									<g>
										<path class="st9" d="M272,239.5c0.6,1.4-0.1,3-1.5,3.6s-3-0.1-3.6-1.5s0.1-3,1.5-3.6C269.8,237.5,271.4,238.1,272,239.5z"
											/>
									</g>
								</g>
							</g>
							<g>
								<g>
									<g>
										<g>
											<path class="st10" d="M272,239.5c0,0-0.1-0.2-0.4-0.5s-0.8-0.8-1.5-0.9c-0.7-0.2-1.7,0-2.4,0.6c-0.7,0.6-1.1,1.8-0.6,2.9
												c0.4,1.1,1.5,1.6,2.5,1.6s1.8-0.6,2.1-1.3c0.4-0.6,0.4-1.3,0.4-1.7C272.1,239.8,272,239.5,272,239.5s0.2,0.2,0.3,0.6
												c0.1,0.4,0.1,1.1-0.3,1.9c-0.4,0.7-1.2,1.4-2.4,1.5c-1.1,0.1-2.4-0.6-2.9-1.8s-0.1-2.6,0.7-3.3c0.8-0.8,1.9-0.9,2.7-0.6
												c0.8,0.2,1.3,0.7,1.5,1.1C272,239.3,272,239.5,272,239.5z"/>
										</g>
									</g>
								</g>
							</g>
						</g>
						<g>
							<g>
								<g>
									<g>
										<path class="st11" d="M271.3,239.8c0.4,1-0.1,2.3-1.1,2.7s-2.3-0.1-2.7-1.1c-0.4-1,0.1-2.3,1.1-2.7
											C269.7,238.3,270.9,238.8,271.3,239.8z"/>
									</g>
								</g>
							</g>
						</g>
					</g>
				</g>
			</g>
			<g>
				<g>
					<g>
						<g>
							<g>
								<path class="st5" d="M232.3,309.7c0,0,0.6-0.1,1.2-0.8c0.3-0.4,0.6-1,0.6-1.7c0-0.4-0.1-0.7-0.2-1.1
									c-0.1-0.4-0.2-0.8-0.3-1.3c-0.9-3.7-2.3-9.1-3.9-15.7c-0.4-1.7-0.8-3.4-1.3-5.2c-0.2-0.9-0.4-1.8-0.7-2.8
									c-0.1-0.5-0.2-1-0.4-1.4s-0.5-0.8-0.9-1s-0.9-0.4-1.3-0.3c-0.4,0-1,0.2-1.5,0.3c-1,0.3-2,0.5-3.1,0.8
									c-2.1,0.5-4.2,1.1-6.4,1.7c-8.7,2.3-18.3,4.7-28.4,7.3c-1.2,0.3-1.9,1.6-1.7,2.7c0.3,1.2,0.6,2.5,0.9,3.7
									c0.6,2.5,1.2,4.9,1.8,7.3c1.2,4.8,2.3,9.4,3.3,13.8c0.1,0.5,0.3,1.1,0.4,1.6c0.1,0.5,0.3,1,0.7,1.3s0.8,0.6,1.3,0.6
									c0.5,0.1,1-0.1,1.5-0.2c2.1-0.5,4.1-1,6-1.5c3.9-1,7.5-1.9,10.8-2.8c6.6-1.7,11.9-3,15.7-4c1.8-0.5,3.3-0.8,4.3-1.1
									c0.5-0.1,0.8-0.2,1.1-0.3C232.1,309.7,232.3,309.7,232.3,309.7s-0.1,0-0.4,0.1c-0.3,0.1-0.6,0.2-1.1,0.3
									c-1,0.3-2.4,0.7-4.2,1.1c-3.7,1-9.1,2.4-15.6,4.1c-3.3,0.9-6.9,1.8-10.8,2.8c-1.9,0.5-4,1-6,1.6c-0.5,0.1-1.1,0.3-1.7,0.2
									c-0.6-0.1-1.2-0.3-1.6-0.7c-0.4-0.4-0.7-1-0.8-1.5s-0.3-1.1-0.4-1.6c-1.1-4.4-2.2-9-3.4-13.8c-0.6-2.4-1.2-4.8-1.8-7.3
									c-0.3-1.2-0.6-2.5-0.9-3.7c-0.3-1.4,0.6-2.9,2.1-3.3c10.1-2.6,19.7-5.1,28.4-7.3c2.2-0.6,4.3-1.1,6.4-1.6
									c1-0.3,2.1-0.5,3.1-0.8c0.5-0.1,1-0.3,1.5-0.3c0.6,0,1.1,0.1,1.6,0.4s0.8,0.7,1.1,1.2c0.2,0.5,0.3,1,0.4,1.4
									c0.2,0.9,0.4,1.9,0.7,2.8c0.4,1.8,0.8,3.6,1.2,5.2c1.6,6.6,2.8,12,3.7,15.7c0.1,0.5,0.2,0.9,0.3,1.3s0.2,0.8,0.2,1.2
									c0,0.8-0.3,1.4-0.7,1.7c-0.3,0.4-0.7,0.6-0.9,0.7C232.4,309.7,232.3,309.7,232.3,309.7z"/>
							</g>
						</g>
					</g>
				</g>
				<g>
					<g>
						<g>
							<polygon class="st5" points="210,295.9 216.1,297.8 211.5,302.3 206.9,306.9 205.4,300.5 203.9,294.1 							"/>
						</g>
					</g>
				</g>
			</g>
			<g>
				<g>
					<g>
						<g>
							<g>
								<g>
									<g>
										<g>
											<g>
												
													<rect x="121.3" y="252.4" transform="matrix(0.9678 -0.2519 0.2519 0.9678 -62.463 43.283)" class="st4" width="33" height="26.4"/>
											</g>
										</g>
									</g>
								</g>
								<g>
									<g>
										<g>
											<g>
												<g>
													<path class="st10" d="M150.5,248.6c0,0-0.1,0-0.2,0c-0.1,0-0.3,0.1-0.4,0.1c-0.4,0.1-1,0.3-1.7,0.5
														c-1.5,0.4-3.7,1-6.5,1.7c-5.6,1.5-13.6,3.6-23.1,6l0.1-0.1c2,7.6,4.3,16.3,6.7,25.6l0,0l-0.1-0.1
														c11.8-3.1,22.8-5.9,32-8.3l-0.1,0.1c-2-7.7-3.6-14.1-4.8-18.5c-0.6-2.2-1-4-1.3-5.2c-0.2-0.6-0.3-1.1-0.3-1.4
														C150.5,248.8,150.5,248.6,150.5,248.6s0,0.2,0.1,0.5s0.2,0.8,0.4,1.3c0.3,1.2,0.8,2.9,1.4,5.2
														c1.2,4.5,2.9,10.9,4.9,18.6v0.1h-0.1c-9.1,2.4-20.1,5.3-32,8.3h-0.1v-0.1l0,0c-2.4-9.2-4.7-18-6.6-25.6v-0.1h0.1
														c9.5-2.5,17.5-4.5,23.1-6c2.8-0.7,5-1.3,6.5-1.7c0.8-0.2,1.3-0.3,1.7-0.4c0.2,0,0.3-0.1,0.4-0.1
														C150.5,248.7,150.5,248.6,150.5,248.6z"/>
												</g>
											</g>
										</g>
									</g>
								</g>
							</g>
						</g>
					</g>
					<g>
						<g>
							<g>
								<g>
									
										<rect x="122.5" y="254.1" transform="matrix(0.9678 -0.2519 0.2519 0.9678 -62.4686 43.2991)" class="st5" width="30.7" height="23.1"/>
								</g>
							</g>
						</g>
					</g>
					<g>
						<g>
							<g>
								<g>
									<polygon class="st5" points="125.9,280.6 132.6,264 141.3,271.1 144.5,265.3 155.6,272.9 									"/>
								</g>
							</g>
						</g>
					</g>
					<g>
						<g>
							<g>
								<g>
									<g>
										<g>
											<path class="st5" d="M141.4,260c0.3,1.3-0.4,2.6-1.7,2.9s-2.6-0.4-2.9-1.7c-0.3-1.3,0.4-2.6,1.7-2.9S141,258.7,141.4,260
												z"/>
										</g>
									</g>
								</g>
							</g>
						</g>
					</g>
					<g class="st6">
						<g>
							<g>
								<g>
									<polygon points="125.9,280.6 132.6,264 141.3,271.1 144.5,265.3 155.6,272.9 									"/>
								</g>
							</g>
						</g>
					</g>
					<g class="st6">
						<g>
							<g>
								<g>
									<g>
										<g>
											<path d="M141.4,260c0.3,1.3-0.4,2.6-1.7,2.9s-2.6-0.4-2.9-1.7c-0.3-1.3,0.4-2.6,1.7-2.9S141,258.7,141.4,260z"/>
										</g>
									</g>
								</g>
							</g>
						</g>
					</g>
				</g>
				<g>
					<g>
						<g>
							<g>
								<g>
									<g>
										<g>
											<g>
												
													<rect x="135.8" y="228.3" transform="matrix(0.9975 -7.031335e-02 7.031335e-02 0.9975 -17.0569 11.9185)" class="st4" width="49.9" height="39.9"/>
											</g>
										</g>
									</g>
								</g>
								<g>
									<g>
										<g>
											<g>
												<g>
													<path class="st10" d="M184.2,226.5c0,0-0.1,0-0.2,0c-0.2,0-0.4,0-0.7,0.1c-0.6,0-1.5,0.1-2.7,0.2
														c-2.4,0.2-5.8,0.4-10.2,0.8c-8.7,0.6-21.2,1.5-36,2.6l0.1-0.1c0.8,11.8,1.8,25.4,2.8,39.8l0,0l-0.2-0.1
														c18.4-1.3,35.6-2.5,49.8-3.5l-0.1,0.1c-0.8-12-1.5-21.9-2-28.9c-0.2-3.5-0.4-6.2-0.5-8.1c-0.1-0.9-0.1-1.6-0.1-2.1
														C184.2,226.8,184.2,226.5,184.2,226.5s0,0.2,0.1,0.7c0,0.5,0.1,1.2,0.2,2.1c0.1,1.9,0.3,4.6,0.6,8
														c0.5,7,1.2,16.9,2.1,28.9v0.1h-0.1c-14.2,1-31.4,2.2-49.8,3.5h-0.1v-0.1l0,0c-1-14.4-2-28-2.8-39.8v-0.1h0.1
														c14.8-1,27.3-1.9,36-2.5c4.4-0.3,7.8-0.5,10.2-0.7c1.2-0.1,2.1-0.1,2.7-0.2c0.3,0,0.5,0,0.7,0
														C184.2,226.5,184.2,226.5,184.2,226.5z"/>
												</g>
											</g>
										</g>
									</g>
								</g>
							</g>
						</g>
					</g>
					<g>
						<g>
							<g>
								<g>
									
										<rect x="137.5" y="230.8" transform="matrix(0.9975 -7.031274e-02 7.031274e-02 0.9975 -17.0569 11.9148)" class="st5" width="46.4" height="34.9"/>
								</g>
							</g>
						</g>
					</g>
					<g>
						<g>
							<g>
								<g>
									<polygon class="st5" points="138.8,267.2 153.4,244.5 164.4,257.3 170.7,249.6 185.1,264 									"/>
								</g>
							</g>
						</g>
					</g>
					<g>
						<g>
							<g>
								<g>
									<g>
										<g>
											<path class="st5" d="M167.5,240.8c0.1,2-1.4,3.8-3.4,3.9c-2,0.1-3.8-1.4-3.9-3.4c-0.1-2,1.4-3.8,3.4-3.9
												C165.6,237.3,167.4,238.8,167.5,240.8z"/>
										</g>
									</g>
								</g>
							</g>
						</g>
					</g>
					<g class="st6">
						<g>
							<g>
								<g>
									<polygon points="138.8,267.2 153.4,244.5 164.4,257.3 170.7,249.6 185.1,264 									"/>
								</g>
							</g>
						</g>
					</g>
					<g class="st6">
						<g>
							<g>
								<g>
									<g>
										<g>
											<path d="M167.5,240.8c0.1,2-1.4,3.8-3.4,3.9c-2,0.1-3.8-1.4-3.9-3.4c-0.1-2,1.4-3.8,3.4-3.9
												C165.6,237.3,167.4,238.8,167.5,240.8z"/>
										</g>
									</g>
								</g>
							</g>
						</g>
					</g>
				</g>
			</g>
			<g>
				<g>
					<g>
						<g>
							<g>
								<path class="st5" d="M89.1,287.5c-2.4-7.8-10.7-12.2-18.5-9.7c-7.8,2.4-12.2,10.7-9.7,18.5c1.8,5.7,6.6,9.5,12.1,10.3
									c0.5,1.7,1.1,3.6,1.1,3.6l12.4-3.9c0,0-0.5-2-1.1-3.8C89.1,298.7,90.8,292.9,89.1,287.5z"/>
							</g>
						</g>
					</g>
					<g>
						<g>
							<g>
								<g>
									<path class="st10" d="M81.9,307.6c0,0,0-0.1,0-0.2s-0.1-0.3-0.1-0.5c-0.1-0.5-0.2-1.2-0.4-2c-0.1-0.9-0.3-2-0.4-3.2
										c-0.1-1.3-0.1-2.7,0.1-4.3c0.1-0.8,0.2-1.6,0.5-2.5c0.1-0.4,0.3-0.8,0.7-1.2c0.3-0.3,0.9-0.5,1.4-0.4
										c0.2,0.1,0.5,0.2,0.6,0.4c0.1,0.2,0.2,0.5,0.2,0.7c-0.1,0.5-0.4,1-0.8,1.3c-0.8,0.6-1.9,0.9-3,0.7
										c-1.1-0.2-2.1-0.8-2.7-1.7c-0.3-0.5-0.6-1-0.6-1.6s0.3-1.2,1-1.4c0.3-0.1,0.7,0,0.9,0.3c0.2,0.2,0.4,0.5,0.4,0.8
										c0,0.6-0.2,1.2-0.6,1.7c-0.7,1-1.7,1.8-3,2c-1.2,0.2-2.5-0.3-3.4-1.2c-0.4-0.4-0.7-1.1-0.6-1.7c0-0.3,0.2-0.6,0.4-0.8
										c0.3-0.2,0.6-0.2,0.9-0.2c0.3,0.1,0.6,0.2,0.8,0.4c0.2,0.2,0.4,0.5,0.5,0.7c0.2,0.5,0.3,1.1,0.3,1.7c0,1.1-0.5,2.2-1.3,3
										s-1.8,1.2-2.8,1.3c-0.5,0-1,0-1.5-0.3c-0.4-0.3-0.7-0.8-0.5-1.3c0.1-0.2,0.3-0.4,0.5-0.5s0.5-0.1,0.7-0.1
										c0.5,0.1,0.9,0.4,1.2,0.7c0.6,0.7,1.1,1.3,1.6,1.9c2,2.5,3.6,4.6,4.6,6.1c0.5,0.7,0.9,1.3,1.2,1.7c0.1,0.2,0.2,0.3,0.3,0.4
										c0.1,0.1,0.1,0.2,0.1,0.2s0,0-0.1-0.1s-0.2-0.2-0.3-0.4c-0.3-0.4-0.7-1-1.2-1.7c-1.1-1.4-2.6-3.5-4.6-6
										c-0.5-0.6-1-1.3-1.6-1.9c-0.3-0.3-0.7-0.6-1.1-0.7s-0.9,0.1-1.1,0.5s0.1,0.9,0.4,1.1c0.4,0.3,0.9,0.3,1.4,0.2
										c1-0.1,2-0.5,2.7-1.3c0.7-0.7,1.2-1.8,1.2-2.9c0-0.5-0.1-1.1-0.3-1.6c-0.2-0.5-0.6-1-1.1-1.1c-0.3-0.1-0.5,0-0.8,0.2
										c-0.2,0.2-0.3,0.4-0.4,0.7c0,0.6,0.2,1.1,0.6,1.5c0.8,0.9,2,1.3,3.2,1.1c1.2-0.2,2.2-0.9,2.9-1.9c0.3-0.5,0.6-1,0.5-1.6
										c0-0.3-0.1-0.5-0.3-0.7c-0.2-0.2-0.5-0.3-0.7-0.2c-0.3,0.1-0.5,0.2-0.6,0.4c-0.2,0.2-0.2,0.5-0.2,0.8
										c0,0.5,0.3,1.1,0.6,1.5c0.6,0.9,1.6,1.5,2.6,1.7s2.1-0.1,2.9-0.7c0.4-0.3,0.7-0.7,0.7-1.2c0.1-0.5-0.2-0.9-0.7-1
										c-0.4-0.1-0.9,0-1.2,0.3c-0.3,0.3-0.5,0.7-0.7,1.1c-0.3,0.8-0.4,1.7-0.5,2.4c-0.2,1.6-0.2,3-0.1,4.3s0.2,2.4,0.4,3.2
										c0.1,0.9,0.2,1.6,0.3,2c0,0.2,0.1,0.4,0.1,0.5C81.9,307.5,81.9,307.6,81.9,307.6z"/>
								</g>
							</g>
						</g>
					</g>
					<g>
						<g>
							<g>
								<path class="st10" d="M86.2,308.8l-10.6,3.3c-0.4,0.1-0.9-0.1-1-0.5l0,0c-0.1-0.4,0.1-0.9,0.5-1l10.6-3.3
									c0.4-0.1,0.9,0.1,1,0.5l0,0C86.8,308.2,86.6,308.7,86.2,308.8z"/>
							</g>
						</g>
					</g>
					<g>
						<g>
							<g>
								<path class="st10" d="M86.4,309.5l-10.6,3.3c-0.4,0.1-0.7,0.6-0.5,1c0.1,0.4,0.6,0.7,1,0.5l1.2-0.4l2.5,2.5
									c0.3,0.3,0.7,0.4,1.1,0.3l3.8-1.2c0.4-0.1,0.7-0.4,0.7-0.8l0.6-3.4l0.8-0.2c0.4-0.1,0.7-0.6,0.5-1
									C87.3,309.6,86.8,309.4,86.4,309.5z"/>
							</g>
						</g>
					</g>
				</g>
				<g class="st6">
					<g>
						<g>
							<g>
								<path class="st8" d="M63.1,285.7c0.7-1.2,1.5-2.1,2.2-2.8c0.8-0.7,1.5-1.1,2-1.3c0.5-0.2,0.8-0.3,0.9-0.2
									c0.1,0.2-0.8,1-2,2.4c-1.1,1.4-2.4,3.6-2.8,6.3c-0.4,2.7,0.3,5.1,1,6.8c0.7,1.7,1.5,2.6,1.3,2.8c-0.1,0.1-0.4,0-0.8-0.4
									c-0.4-0.3-1-0.9-1.6-1.8c-0.6-0.8-1.1-1.9-1.4-3.3c-0.3-1.3-0.5-2.8-0.3-4.4"/>
							</g>
						</g>
					</g>
				</g>
				<g class="st6">
					<g>
						<g>
							<g>
								<path class="st8" d="M71.8,281c-0.9,0.3-1.8,0.3-2-0.2c-0.1-0.2,0-0.5,0.2-0.8c0.3-0.3,0.7-0.6,1.2-0.7
									c0.5-0.2,1.1-0.2,1.4-0.1c0.4,0.1,0.6,0.3,0.7,0.5"/>
							</g>
						</g>
					</g>
				</g>
				<g>
					<g>
						<g>
							<g>
								<path class="st11" d="M85.4,315.1c0,0-0.3,0-0.8,0s-1.2,0.1-1.9,0.3c-0.7,0.2-1.3,0.6-1.7,0.9c-0.4,0.3-0.6,0.5-0.6,0.5
									s0.2-0.3,0.6-0.6c0.4-0.3,1-0.7,1.7-1c0.7-0.2,1.4-0.3,1.9-0.3C85.1,315,85.4,315.1,85.4,315.1z"/>
							</g>
						</g>
					</g>
				</g>
				<g>
					<g>
						<g>
							<g>
								<path class="st11" d="M86.1,311.4c0,0-1.9,0.7-4.3,1.4c-2.4,0.7-4.3,1.3-4.3,1.3s1.9-0.7,4.3-1.4
									C84.2,311.9,86.1,311.4,86.1,311.4z"/>
							</g>
						</g>
					</g>
				</g>
				<g>
					<g>
						<g>
							<g>
								<path class="st11" d="M85.8,312.9c0,0-0.4,0.2-1,0.4c-0.6,0.2-1.5,0.6-2.5,0.9s-1.9,0.6-2.5,0.8c-0.7,0.2-1.1,0.3-1.1,0.3
									s0.4-0.2,1-0.4c0.7-0.2,1.6-0.5,2.5-0.8c1-0.3,1.8-0.6,2.5-0.8C85.4,313,85.8,312.9,85.8,312.9z"/>
							</g>
						</g>
					</g>
				</g>
			</g>
			<g>
				<g>
					<g>
						<g>
							<g>
								<path class="st5" d="M404.7,221.2c-11-10.2-30.5-9-40.2,2.5c-3.8,4.5-6.4,10.4-11.6,13.2c-8,4.2-17.8-1.1-26.8-0.3
									c-10.6,0.9-19.3,11.7-18,22.2c0.6,4.8,2.9,9.8,0.6,14.1c-2.9,5.4-11.1,5.6-14.6,10.7c-3.1,4.5-0.7,11.3,3.9,14.4
									c4.5,3.1,10.4,3.5,15.9,3.3c5.5-0.3,11.1-1,16.5,0.2c5.9,1.3,11,5,16.7,7.2c13.6,5.4,29.5,2.4,42-5.1
									c12.6-7.5,22.3-18.9,30.8-30.8"/>
							</g>
						</g>
						<g class="st13">
							<g>
								<g>
									<path class="st8" d="M404.7,221.2c-11-10.2-30.5-9-40.2,2.5c-3.8,4.5-6.4,10.4-11.6,13.2c-8,4.2-17.8-1.1-26.8-0.3
										c-10.6,0.9-19.3,11.7-18,22.2c0.6,4.8,2.9,9.8,0.6,14.1c-2.9,5.4-11.1,5.6-14.6,10.7c-3.1,4.5-0.7,11.3,3.9,14.4
										c4.5,3.1,10.4,3.5,15.9,3.3c5.5-0.3,11.1-1,16.5,0.2c5.9,1.3,11,5,16.7,7.2c13.6,5.4,29.5,2.4,42-5.1
										c12.6-7.5,22.3-18.9,30.8-30.8"/>
								</g>
							</g>
						</g>
					</g>
					<g>
						<g>
							<path class="st5" d="M402,235.1c-8.9-8.8-25.6-7.5-33.2,2.5c-4.6,6.1-7.3,15.4-14.8,16.5c-5.1,0.7-10-3.2-15.2-2.8
								c-6.9,0.5-11.1,8.9-9.3,15.6c1.8,6.7,7.7,11.5,13.8,14.6c21.4,10.9,49.9,5.1,65.4-13.2"/>
						</g>
					</g>
				</g>
				<g>
					<g>
						<g>
							<g>
								<polyline class="st14" points="605.7,257.4 594.1,241 609.2,230.4 619.7,251.8 606.4,257.3 								"/>
							</g>
						</g>
						<g>
							<g>
								<g>
									<g>
										<g>
											<g>
												<path class="st5" d="M619.1,248.8l8.2,14.8c0,0,17.8-3.4,19.5-0.8l-28.1,16.9L605,257.2L619.1,248.8z"/>
											</g>
										</g>
									</g>
								</g>
								<g class="st15">
									<g>
										<g>
											<g>
												<g>
													<path class="st8" d="M617.9,267.6c-0.5,0.5-0.5,1.3,0,1.8s1.3,0.5,1.8,0s0.5-1.5,0-1.9
														C619.1,267.1,618.1,267.1,617.9,267.6"/>
												</g>
											</g>
										</g>
									</g>
								</g>
								<g class="st15">
									<g>
										<g>
											<g>
												<path class="st8" d="M618.8,279.7l-1.3-2.3l27.4-15.3c0,0,1.6-0.2,2,0.8L618.8,279.7z"/>
											</g>
										</g>
									</g>
								</g>
								<g>
									<g>
										<g>
											<g>
												<g>
													<path class="st10" d="M627.7,263.2c0.1,0.1-0.6,0.6-1,1.5c-0.4,0.8-0.4,1.6-0.6,1.7c-0.1,0-0.4-0.9,0.1-1.9
														C626.7,263.4,627.6,263,627.7,263.2z"/>
												</g>
											</g>
										</g>
									</g>
								</g>
								<g>
									<g>
										<g>
											<g>
												<g>
													<path class="st10" d="M631.3,262.6c0.1,0.1-0.3,0.7-0.5,1.6c-0.1,0.9,0.1,1.6,0,1.6c-0.1,0.1-0.7-0.6-0.5-1.7
														S631.3,262.5,631.3,262.6z"/>
												</g>
											</g>
										</g>
									</g>
								</g>
								<g>
									<g>
										<g>
											<g>
												<g>
													<path class="st10" d="M635.1,265.1c-0.1,0.1-0.7-0.5-0.8-1.4c-0.1-1,0.4-1.6,0.5-1.6c0.1,0.1,0,0.7,0.1,1.5
														C635,264.4,635.3,265.1,635.1,265.1z"/>
												</g>
											</g>
										</g>
									</g>
								</g>
								<g>
									<g>
										<g>
											<g>
												<g>
													<path class="st10" d="M625.4,260c0,0.2-0.7,0.3-1.5,0.9c-0.8,0.5-1.2,1.1-1.3,1.1c-0.1-0.1,0.1-0.9,1-1.5
														C624.5,259.8,625.4,259.9,625.4,260z"/>
												</g>
											</g>
										</g>
									</g>
								</g>
							</g>
							<g>
								<g>
									<g>
										<g>
											<g>
												<path class="st10" d="M623.7,257.1c0,0.1-0.5,0.5-1.4,0.8c-0.5,0.2-1.1,0.3-1.7,0.4c-0.3,0-0.7,0.1-1.1,0.1
													c-0.2,0-0.4,0-0.6-0.1c-0.2-0.1-0.5-0.4-0.5-0.7c0-0.3,0.2-0.5,0.4-0.7c0.2-0.1,0.4-0.2,0.6-0.2
													c0.4-0.1,0.7-0.2,1.1-0.2c0.7-0.1,1.3,0,1.8,0.1C623.3,256.8,623.8,257.2,623.7,257.1c0.1,0.2-0.5-0.1-1.5-0.2
													c-0.5,0-1.1-0.1-1.7,0c-0.3,0.1-0.6,0.1-1,0.2c-0.3,0.1-0.6,0.3-0.6,0.4s0,0.1,0.1,0.1s0.3,0,0.5,0.1c0.3,0,0.7,0,1,0
													c0.6-0.1,1.2-0.2,1.7-0.3C623.1,257.3,623.7,257,623.7,257.1z"/>
											</g>
										</g>
									</g>
								</g>
							</g>
							<g>
								<g>
									<g>
										<g>
											<g>
												<path class="st10" d="M623.7,257.4c0,0.1-0.6-0.3-1.2-1.1c-0.3-0.4-0.6-1-0.7-1.7c-0.1-0.3-0.1-0.7-0.2-1.1
													c0-0.4,0-0.9,0.5-1.2c0.3-0.2,0.6-0.1,0.8,0s0.3,0.3,0.5,0.4c0.2,0.3,0.4,0.6,0.6,0.9c0.3,0.7,0.3,1.3,0.3,1.8
													c-0.1,1.1-0.6,1.6-0.6,1.5c-0.1,0,0.2-0.6,0.2-1.5c0-0.5-0.1-1-0.4-1.6c-0.1-0.3-0.3-0.5-0.5-0.8s-0.5-0.4-0.6-0.3
													s-0.2,0.4-0.2,0.8c0,0.3,0,0.7,0.1,1c0.1,0.6,0.3,1.1,0.6,1.6C623.3,256.9,623.7,257.3,623.7,257.4z"/>
											</g>
										</g>
									</g>
								</g>
							</g>
						</g>
						<g>
							<g>
								<polyline class="st10" points="562.9,199.1 598.8,255.6 618.5,242.2 585.4,174.2 								"/>
							</g>
						</g>
						<g>
							<g>
								<g>
									<path class="st11" d="M565.8,186.7c0.1,0.1-0.9,2.4-1.4,5.4s-0.3,5.6-0.5,5.6c-0.1,0-0.6-2.5,0-5.7
										C564.4,188.9,565.7,186.7,565.8,186.7z"/>
								</g>
							</g>
						</g>
						<g>
							<g>
								<g>
									<path class="st11" d="M562.1,186.9c0.2,0,0,2.5,0.4,5.5s1.2,5.3,1,5.4c-0.1,0.1-1.1-2.3-1.5-5.3
										C561.6,189.4,562,186.9,562.1,186.9z"/>
								</g>
							</g>
						</g>
					</g>
					<g>
						<g>
							<g>
								<path class="st10" d="M422.7,199l-24.7-7.6c-29.7,37.9-27.8,79.5,20.1,104.1l26.6-29.8L422.7,199z"/>
							</g>
						</g>
						<g>
							<g>
								<g>
									<path class="st3" d="M425.1,192.9c-15.8,9.2-23.6,28.6-21.7,47.6c2.1,20.8,15.9,41.1,41.1,46.7L614,253.3
										c29.6-5.9,47.8-35.9,39.4-64.9l0,0c-7.7-26.4-34.8-42.2-61.5-35.7L425.1,192.9z"/>
								</g>
							</g>
							<g>
								<g>
									<g>
										<path class="st10" d="M425.1,192.9c0,0,0.5-0.1,1.6-0.4c1.1-0.3,2.6-0.6,4.6-1.1c4.1-1,10.1-2.5,17.8-4.3
											c15.5-3.8,37.9-9.2,65.6-15.9c13.9-3.3,29-7,45.3-11c8.1-2,16.6-4,25.3-6.1c2.2-0.5,4.4-1,6.6-1.6
											c1.1-0.2,2.2-0.4,3.4-0.6c0.6-0.1,1.1-0.2,1.7-0.3l1.7-0.2c1.1-0.1,2.3-0.2,3.5-0.3c1.2,0,2.3,0,3.5,0s2.3,0.1,3.5,0.2
											l1.8,0.2l0.9,0.1l0.9,0.2c1.2,0.2,2.3,0.5,3.5,0.7c1.2,0.3,2.3,0.7,3.4,1c0.6,0.2,1.2,0.3,1.7,0.5l1.7,0.7l1.7,0.7
											c0.6,0.2,1.1,0.4,1.7,0.7c1.1,0.6,2.2,1.1,3.2,1.7c1.1,0.6,2.1,1.3,3.1,1.9c0.5,0.3,1,0.6,1.5,1l1.5,1.1l1.5,1.1l0.7,0.6
											l0.7,0.6c7.4,6.6,13,15.6,15.6,25.5c2.6,10,2.2,20.9-1.5,30.9s-10.6,18.9-19.7,25c-3.8,2.6-8,4.6-12.3,6.1
											c-4.3,1.5-8.8,2.2-13.2,3.1c-8.8,1.8-17.5,3.5-26,5.2c-17.1,3.4-33.7,6.7-49.7,9.9c-31.9,6.4-61.4,12.2-87.2,17.4l0,0l0,0
											c-4.5-1.1-8.9-2.6-12.9-4.6c-4-2.1-7.6-4.5-10.8-7.3c-3.1-2.8-5.8-6-8.2-9.2c-2.2-3.3-4.1-6.7-5.5-10.2
											c-0.4-0.9-0.6-1.7-1-2.6c-0.3-0.9-0.6-1.7-0.8-2.6c-0.2-0.9-0.5-1.7-0.7-2.6c-0.2-0.9-0.4-1.7-0.5-2.6
											c-0.2-0.9-0.4-1.7-0.4-2.5c-0.1-0.8-0.2-1.7-0.3-2.5c-0.1-0.8-0.1-1.7-0.2-2.5s-0.1-1.6-0.1-2.4
											c-0.1-6.4,0.9-12.3,2.5-17.3c1.6-5.1,3.7-9.3,6-12.7s4.6-6,6.7-7.8c0.5-0.5,1-0.9,1.5-1.3c0.5-0.4,0.9-0.7,1.4-1
											c0.4-0.3,0.8-0.6,1.2-0.9c0.4-0.2,0.7-0.5,1-0.6C424.5,193.3,425.1,192.9,425.1,192.9s-0.6,0.4-1.8,1.2
											c-0.3,0.2-0.6,0.4-1,0.7s-0.7,0.6-1.2,0.9c-0.4,0.3-0.9,0.7-1.4,1.1c-0.5,0.4-0.9,0.9-1.5,1.3c-2.1,1.9-4.4,4.5-6.7,7.9
											c-2.2,3.4-4.4,7.6-5.9,12.7c-1.6,5-2.5,10.9-2.4,17.3c0,0.8,0,1.6,0.1,2.4c0.1,0.8,0.1,1.6,0.2,2.5
											c0.1,0.8,0.2,1.7,0.3,2.5c0.1,0.8,0.3,1.7,0.4,2.5c0.2,0.8,0.4,1.7,0.5,2.6c0.2,0.8,0.5,1.7,0.7,2.6
											c0.2,0.9,0.5,1.7,0.8,2.6s0.6,1.7,1,2.6c1.4,3.4,3.3,6.8,5.5,10.1c2.3,3.2,5,6.3,8.1,9.1c3.2,2.7,6.8,5.2,10.7,7.2
											c4,2,8.3,3.4,12.8,4.5h-0.1c25.8-5.2,55.2-11.1,87.2-17.5c16-3.2,32.6-6.5,49.7-9.9c8.5-1.7,17.2-3.4,26-5.2
											c4.4-0.9,8.9-1.6,13.1-3.1c4.3-1.4,8.4-3.4,12.1-6c9-6,15.8-14.9,19.5-24.8c3.7-9.9,4.1-20.7,1.5-30.6
											c-2.6-9.9-8.1-18.7-15.4-25.3l-0.7-0.6l-0.7-0.6l-1.4-1.1l-1.4-1.1c-0.5-0.4-1-0.7-1.5-1c-1-0.6-2-1.3-3.1-1.9
											c-1.1-0.6-2.1-1.1-3.2-1.7c-0.5-0.3-1.1-0.5-1.6-0.7l-1.7-0.7l-1.7-0.7c-0.6-0.2-1.1-0.4-1.7-0.5c-1.1-0.3-2.3-0.7-3.4-1
											c-1.2-0.2-2.3-0.5-3.5-0.7l-0.9-0.2l-0.9-0.1l-1.7-0.2c-1.2-0.1-2.3-0.3-3.5-0.2c-1.2,0-2.3,0-3.5,0
											c-1.1,0.1-2.3,0.2-3.4,0.3l-1.7,0.2c-0.6,0.1-1.1,0.2-1.7,0.3c-1.1,0.2-2.2,0.4-3.3,0.6c-2.2,0.5-4.4,1.1-6.6,1.6
											c-8.7,2.1-17.1,4.1-25.2,6.1c-16.3,3.9-31.5,7.6-45.3,10.9c-27.7,6.6-50.1,12-65.7,15.7c-7.8,1.8-13.8,3.3-17.9,4.3
											c-2,0.5-3.6,0.8-4.7,1.1C425.7,192.8,425.1,192.9,425.1,192.9z"/>
									</g>
								</g>
							</g>
						</g>
						<g>
							<g>
								<path class="st5" d="M444.5,287.2L422.1,338c0,0,105.5-10.2,101-66.6L444.5,287.2z"/>
							</g>
						</g>
						<g>
							<g>
								<path class="st5" d="M505,173.7c0,0-50.7-49.2-115.2-28.5l35.4,47.7L505,173.7z"/>
							</g>
						</g>
						<g>
							<g>
								<path class="st5" d="M597.6,152c21.8,16.1,35.1,78.6,24.6,98.4c61.7-18.1,74.6-71,74.6-71C652.2,137.9,597.6,152,597.6,152z
									"/>
							</g>
						</g>
						<g>
							<g>
								<g>
									<path class="st11" d="M412.8,264c0.1,0.1-3.3,4.2-7.6,9.1c-4.3,4.9-7.9,8.8-8,8.7c-0.1-0.1,3.3-4.2,7.6-9.1
										S412.7,263.9,412.8,264z"/>
								</g>
							</g>
						</g>
						<g>
							<g>
								<g>
									<path class="st10" d="M696.8,179.4c0,0-0.1,0.2-0.4,0.7c-0.3,0.5-0.7,1.1-1.2,1.9c-0.5,0.9-1.2,1.9-1.9,3.2
										c-0.4,0.6-0.8,1.3-1.2,2c-0.5,0.7-1,1.4-1.5,2.2c-1.1,1.5-2.3,3.3-3.6,5.2c-1.4,1.8-3,3.7-4.7,5.8c-0.9,1-1.8,2-2.8,3.1
										c-1,1-1.9,2.2-3.1,3.2c-2.2,2.1-4.5,4.4-7.2,6.5c-5.2,4.3-11.3,8.6-18.5,12.2c-3.5,1.8-7.4,3.4-11.4,4.9
										c-2,0.7-4.1,1.4-6.1,2.1c-2,0.7-4.3,1.2-6.4,1.7c-17.5,3.9-36.8,7.8-57,12c-40.5,8.4-77.1,15.8-103.7,21.2
										c-13.3,2.7-24,4.8-31.4,6.3c-3.7,0.7-6.6,1.3-8.6,1.7c-1,0.2-1.7,0.3-2.2,0.4s-0.8,0.1-0.8,0.1s0.3-0.1,0.8-0.2
										s1.3-0.3,2.2-0.5c2-0.4,4.8-1,8.5-1.8c7.4-1.5,18.2-3.7,31.4-6.5c26.5-5.5,63.2-13,103.6-21.3c20.2-4.2,39.5-8.2,57-12
										c2.2-0.5,4.3-0.9,6.4-1.6c2.1-0.8,4.1-1.4,6.1-2.1c4-1.4,7.8-3,11.3-4.8c7.1-3.6,13.2-7.8,18.4-12.1
										c2.7-2.1,4.9-4.4,7.2-6.5c1.1-1,2.1-2.2,3.1-3.2c1-1.1,1.9-2.1,2.8-3.1c1.7-2.1,3.3-4,4.7-5.8c1.4-1.9,2.6-3.6,3.7-5.1
										c0.5-0.8,1.1-1.5,1.5-2.2s0.9-1.4,1.2-2c0.8-1.2,1.4-2.3,2-3.1c0.5-0.8,0.9-1.5,1.2-1.9
										C696.7,179.7,696.8,179.4,696.8,179.4z"/>
								</g>
							</g>
						</g>
						<g>
							<g>
								<g>
									<path class="st10" d="M536.2,269c0,0-0.1-0.1-0.2-0.2c-0.1-0.2-0.3-0.4-0.5-0.6c-0.4-0.6-1.1-1.4-1.8-2.4
										c-0.4-0.5-0.8-1.1-1.3-1.7c-0.5-0.7-0.9-1.4-1.4-2.2c-1-1.6-2.3-3.3-3.4-5.4c-0.6-1-1.2-2.1-1.8-3.2s-1.2-2.3-1.8-3.6
										c-1.3-2.4-2.4-5.2-3.7-8c-2.3-5.8-4.5-12.3-6.1-19.3c-1.5-7-2.3-13.8-2.7-20.1c-0.1-3.1-0.2-6.1-0.1-8.8
										c0.1-1.4,0-2.7,0.2-4c0.1-1.3,0.2-2.5,0.3-3.7c0.1-2.3,0.5-4.4,0.8-6.3c0.1-0.9,0.3-1.8,0.4-2.6c0.2-0.8,0.3-1.5,0.5-2.1
										c0.3-1.3,0.5-2.2,0.6-3c0.1-0.3,0.1-0.6,0.2-0.8c0-0.2,0.1-0.3,0.1-0.3s0,0.1,0,0.3s-0.1,0.5-0.1,0.8
										c-0.1,0.7-0.3,1.7-0.5,3c-0.1,0.6-0.3,1.4-0.4,2.1c-0.1,0.8-0.2,1.7-0.4,2.6c-0.2,1.8-0.6,3.9-0.7,6.3
										c-0.1,1.2-0.2,2.4-0.3,3.7s-0.1,2.6-0.1,4c-0.1,2.8,0,5.7,0.1,8.8c0.4,6.2,1.2,13,2.7,20c1.6,7,3.7,13.5,6,19.2
										c1.2,2.8,2.3,5.6,3.6,8c0.6,1.2,1.2,2.4,1.8,3.6c0.6,1.1,1.2,2.2,1.8,3.2c1.1,2.1,2.3,3.8,3.3,5.4c0.5,0.8,1,1.5,1.4,2.2
										c0.5,0.6,0.9,1.2,1.3,1.8c0.7,1,1.3,1.9,1.8,2.5c0.2,0.3,0.3,0.5,0.4,0.6C536.2,268.9,536.2,269,536.2,269z"/>
								</g>
							</g>
						</g>
						<g>
							<g>
								<g>
									<path class="st5" d="M488.6,216.5l-106.3,22c0,0-0.5,10.4,2.1,10.5c2.2,0.1,81.2-14.2,106.9-18.8c4.2-0.8,6.7-5.1,5.3-9.1
										l0,0C495.5,217.7,492,215.8,488.6,216.5z"/>
								</g>
							</g>
						</g>
					</g>
					<g>
						<g>
							<g>
								
									<ellipse transform="matrix(1.408489e-03 -1 1 1.408489e-03 362.6685 776.4356)" class="st9" cx="570.1" cy="206.6" rx="23.6" ry="25.4"/>
							</g>
						</g>
						<g>
							<g>
								<g>
									<path class="st10" d="M595.5,206.7c0,0,0-0.1,0-0.4c0-0.3-0.1-0.7-0.1-1.2c0-0.3,0-0.5-0.1-0.9c-0.1-0.3-0.1-0.7-0.2-1
										c-0.1-0.4-0.1-0.8-0.2-1.2c-0.1-0.4-0.2-0.9-0.4-1.3c-0.2-0.9-0.7-1.9-1.1-3c-0.5-1.1-1.1-2.2-1.9-3.3
										c-1.5-2.3-3.7-4.6-6.6-6.6c-2.9-1.9-6.4-3.5-10.4-4.2c-1-0.1-2-0.3-3.1-0.3c-0.5,0-1.1-0.1-1.6-0.1s-1.1,0.1-1.6,0.1h-0.8
										l-0.8,0.1c-0.5,0.1-1.1,0.2-1.6,0.2c-0.5,0.1-1.1,0.3-1.6,0.4l-0.8,0.2l-0.8,0.3c-4.3,1.4-8.6,4-11.7,7.9
										c-3.2,3.8-5.1,8.9-5.2,14.1c0.1,5.3,1.9,10.4,5.1,14.1c3.1,3.9,7.3,6.5,11.7,7.9l0.8,0.3l0.8,0.2c0.5,0.1,1.1,0.3,1.6,0.4
										c0.6,0.1,1.1,0.2,1.6,0.2l0.8,0.1h0.8c0.5,0,1.1,0.1,1.6,0.1s1.1,0,1.6-0.1c1.1,0,2.1-0.2,3.1-0.3c4-0.6,7.6-2.2,10.4-4.1
										c2.9-1.9,5-4.3,6.6-6.5c0.8-1.1,1.4-2.3,1.9-3.3c0.4-1.1,0.9-2.1,1.1-3c0.1-0.5,0.3-0.9,0.4-1.3c0.1-0.4,0.1-0.8,0.2-1.2
										c0.1-0.4,0.1-0.7,0.2-1c0-0.3,0-0.6,0.1-0.9c0-0.5,0.1-0.9,0.1-1.2C595.4,206.8,595.5,206.7,595.5,206.7s0,0.1,0,0.4
										c0,0.3,0,0.7,0,1.2c0,0.3,0,0.5,0,0.9c0,0.3-0.1,0.7-0.2,1c-0.1,0.4-0.1,0.8-0.2,1.2c-0.1,0.4-0.2,0.9-0.3,1.3
										c-0.2,1-0.6,2-1.1,3.1s-1.1,2.2-1.9,3.4c-1.5,2.3-3.7,4.7-6.6,6.7c-2.9,2-6.5,3.6-10.6,4.3c-1,0.1-2.1,0.3-3.1,0.3
										c-0.5,0-1.1,0.1-1.6,0.1s-1.1-0.1-1.6-0.1h-0.8l-0.8-0.1c-0.6-0.1-1.1-0.2-1.7-0.2c-0.6-0.1-1.1-0.3-1.7-0.4l-0.8-0.2
										l-0.8-0.3c-4.4-1.4-8.7-4.1-11.9-8.1c-3.3-3.9-5.2-9.1-5.3-14.5c0.1-5.4,2-10.6,5.3-14.4c3.2-3.9,7.5-6.6,11.9-8l0.8-0.3
										l0.8-0.2c0.6-0.1,1.1-0.3,1.7-0.4c0.6-0.1,1.1-0.2,1.7-0.2l0.8-0.1h0.8c0.5,0,1.1,0,1.6-0.1c0.5,0,1.1,0,1.6,0.1
										c1.1,0,2.1,0.2,3.1,0.3c4.1,0.7,7.7,2.3,10.6,4.3c2.9,2,5.1,4.4,6.6,6.7c0.8,1.1,1.3,2.3,1.9,3.4c0.4,1.1,0.9,2.1,1.1,3.1
										c0.1,0.5,0.3,0.9,0.3,1.3c0.1,0.4,0.1,0.8,0.2,1.2c0.1,0.4,0.1,0.7,0.2,1c0,0.3,0,0.6,0,0.9c0,0.5,0,0.9,0,1.2
										C595.5,206.6,595.5,206.7,595.5,206.7z"/>
								</g>
							</g>
						</g>
					</g>
					<g>
						<g>
							<g>
								<path class="st16" d="M589.5,216.4"/>
							</g>
						</g>
					</g>
				</g>
			</g>
			<g>
				<g>
					<g>
						<path class="st5" d="M269.5,292.1c-2.9,1.3-6.3,1.1-9.5,0.8c-3.2-0.4-6.4-0.9-9.6-0.3c-4.9,1-9.2,4.6-14.1,4.4
							c-6.9-0.4-11-7.8-17.1-11c-7.4-4-17.3-1.5-23.3-8.9c-3.6-4.4-4.2-10.8-1.4-15.8c4.3-7.8,14.3-9.1,22.1-6.3
							c6.7,2.4,12.2,7.3,17.4,12.1c1.8,1.6,3.6,3.3,5.4,4.9c5.9,5.1,13.7,7.6,21.5,6.8l0,0c3.8-0.4,7.5,0.7,10.4,3
							c0.8,0.6,1.4,1.5,1.8,2.4l0,0c0.4,0.9,0.6,1.9,0.5,2.9C273.5,289.6,271.8,291,269.5,292.1z"/>
					</g>
				</g>
				<g class="st13">
					<g>
						<g>
							<path class="st8" d="M269.5,292.1c-2.9,1.3-6.3,1.1-9.5,0.8c-3.2-0.4-6.4-0.9-9.6-0.3c-4.9,1-9.2,4.6-14.1,4.4
								c-6.9-0.4-11-7.8-17.1-11c-7.4-4-17.3-1.5-23.3-8.9c-3.6-4.4-4.2-10.8-1.4-15.8c4.3-7.8,14.3-9.1,22.1-6.3
								c6.7,2.4,12.2,7.3,17.4,12.1c1.8,1.6,3.6,3.3,5.4,4.9c5.9,5.1,13.7,7.6,21.5,6.8l0,0c3.8-0.4,7.5,0.7,10.4,3
								c0.8,0.6,1.4,1.5,1.8,2.4l0,0c0.4,0.9,0.6,1.9,0.5,2.9C273.5,289.6,271.8,291,269.5,292.1z"/>
						</g>
					</g>
				</g>
			</g>
			<g>
				<g>
					<g>
						<path class="st5" d="M156.3,288.7c-2-3.5-8-3.6-11.6-1.8c-3.6,1.8-6.1,5.1-8.5,8.3c-2.4,3.2-5.2,6.4-9,7.7
							c-4.1,1.4-8.5,0.3-12.8,0.3s-9.3,2.1-10,6.3c-0.4,2.4,0.4,5.2,2.1,6.8c1.8,1.6,3.7,2.9,5.9,3.8c5.5,2.2,12.1,3.6,18,3.5
							c7.9-0.1,15.7-4.1,20.3-10.4C155.5,307,161.8,295.9,156.3,288.7"/>
					</g>
				</g>
				<g class="st13">
					<g>
						<g>
							<path class="st8" d="M156.3,288.7c-2-3.5-8-3.6-11.6-1.8c-3.6,1.8-6.1,5.1-8.5,8.3c-2.4,3.2-5.2,6.4-9,7.7
								c-4.1,1.4-8.5,0.3-12.8,0.3s-9.3,2.1-10,6.3c-0.4,2.4,0.4,5.2,2.1,6.8c1.8,1.6,3.7,2.9,5.9,3.8c5.5,2.2,12.1,3.6,18,3.5
								c7.9-0.1,15.7-4.1,20.3-10.4C155.5,307,161.8,295.9,156.3,288.7"/>
						</g>
					</g>
				</g>
			</g>
			<g>
				<g>
					<g>
						<path class="st5" d="M47.3,309.1c-1.8,0.7-3.5,1.7-4.7,3.1c-1.2,1.5-1.8,3.5-1.2,5.3s2.7,3.1,4.5,2.4c1-0.3,1.7-1.1,2.7-1.3
							c1.6-0.3,3,1.1,4.5,1.4c2.4,0.4,4.6-1.9,4.5-4.3c0-2.4-2-4.2-3.9-5.6C51.3,308.3,48.2,308.8,47.3,309.1"/>
					</g>
				</g>
				<g class="st13">
					<g>
						<g>
							<path class="st8" d="M47.3,309.1c-1.8,0.7-3.5,1.7-4.7,3.1c-1.2,1.5-1.8,3.5-1.2,5.3s2.7,3.1,4.5,2.4c1-0.3,1.7-1.1,2.7-1.3
								c1.6-0.3,3,1.1,4.5,1.4c2.4,0.4,4.6-1.9,4.5-4.3c0-2.4-2-4.2-3.9-5.6C51.3,308.3,48.2,308.8,47.3,309.1"/>
						</g>
					</g>
				</g>
			</g>
			<g>
				<g>
					<g>
						<path class="st11" d="M483.9,145.9c-8.2-0.4-12.2,5.8-16.8,7c-4.6,1.2-9.6,1.5-14-0.3c-5.7-2.3-9.6-7.6-14.6-11.2
							c-10-7.2-24.8-6.8-34.4,1c-0.2,5.4,4.4,9.8,9,12.8c4.5,3.1,17,7.5,18.6,12.7c1.2,3.9-7.2,7.2-5.1,10.7c2,3.4,9.1,3.1,13,2.5
							c24.4-4.2,15.9,3.3,23.4,2.6c0,0,15.8-4,28.2-6.1"/>
					</g>
				</g>
				<g>
					<g>
						<g>
							<polyline class="st14" points="566.3,289.7 558.3,271.3 575.3,263.9 581.1,287.1 567,289.7 							"/>
						</g>
					</g>
					<g>
						<g>
							<g>
								<g>
									<g>
										<g>
											<path class="st5" d="M581.1,284.1l5,16.1c0,0,18.1,0.4,19.3,3.3l-31,10.7l-8.8-24.8L581.1,284.1z"/>
										</g>
									</g>
								</g>
							</g>
							<g class="st15">
								<g>
									<g>
										<g>
											<g>
												<path class="st8" d="M576.1,302.2c-0.5,0.4-0.7,1.2-0.4,1.7c0.3,0.6,1.2,0.7,1.7,0.4c0.5-0.4,0.8-1.3,0.4-1.9
													C577.4,301.9,576.4,301.7,576.1,302.2"/>
											</g>
										</g>
									</g>
								</g>
							</g>
							<g class="st15">
								<g>
									<g>
										<g>
											<path class="st8" d="M574.4,314.2l-0.8-2.5l30-9.3c0,0,1.6,0.1,1.8,1.1L574.4,314.2z"/>
										</g>
									</g>
								</g>
							</g>
							<g>
								<g>
									<g>
										<g>
											<g>
												<path class="st10" d="M586.5,299.9c0,0.2-0.7,0.5-1.3,1.2s-0.8,1.5-0.9,1.5c-0.1,0-0.2-1,0.5-1.9
													C585.5,299.9,586.5,299.7,586.5,299.9z"/>
											</g>
										</g>
									</g>
								</g>
							</g>
							<g>
								<g>
									<g>
										<g>
											<g>
												<path class="st10" d="M590.3,300.1c0.1,0.1-0.5,0.6-0.8,1.4s-0.2,1.5-0.4,1.6c-0.1,0.1-0.5-0.8-0.2-1.8
													C589.3,300.3,590.2,299.9,590.3,300.1z"/>
											</g>
										</g>
									</g>
								</g>
							</g>
							<g>
								<g>
									<g>
										<g>
											<g>
												<path class="st10" d="M593.4,303.3c-0.1,0.1-0.6-0.6-0.5-1.6s0.7-1.5,0.8-1.4s-0.2,0.7-0.2,1.5
													C593.4,302.6,593.6,303.3,593.4,303.3z"/>
											</g>
										</g>
									</g>
								</g>
							</g>
							<g>
								<g>
									<g>
										<g>
											<g>
												<path class="st10" d="M585,296.3c0,0.2-0.8,0.2-1.6,0.5s-1.4,0.9-1.5,0.8s0.3-0.9,1.3-1.3
													C584.2,295.9,585,296.2,585,296.3z"/>
											</g>
										</g>
									</g>
								</g>
							</g>
						</g>
						<g>
							<g>
								<g>
									<g>
										<g>
											<path class="st10" d="M583.9,293.1c0,0.1-0.5,0.4-1.6,0.5c-0.5,0.1-1.1,0.1-1.8,0.1c-0.3,0-0.7-0.1-1.1-0.2
												c-0.2,0-0.4-0.1-0.6-0.2c-0.2-0.1-0.5-0.5-0.3-0.8c0.1-0.3,0.3-0.5,0.5-0.6s0.4-0.1,0.6-0.1c0.4,0,0.7,0,1.1,0
												c0.7,0.1,1.3,0.2,1.8,0.4C583.4,292.6,583.9,293.1,583.9,293.1c-0.2,0.1-0.7-0.3-1.6-0.6c-0.5-0.1-1-0.3-1.7-0.3
												c-0.3,0-0.6,0-1,0s-0.6,0.1-0.7,0.3c0,0.1,0,0.1,0.1,0.2s0.3,0.1,0.4,0.1c0.3,0.1,0.7,0.1,1,0.2c0.6,0.1,1.2,0.1,1.7,0.1
												C583.3,293.2,583.9,293,583.9,293.1z"/>
										</g>
									</g>
								</g>
							</g>
						</g>
						<g>
							<g>
								<g>
									<g>
										<g>
											<path class="st10" d="M583.8,293.4c0,0-0.5-0.4-0.9-1.4c-0.2-0.5-0.3-1.1-0.4-1.8c0-0.3,0-0.7,0.1-1.1s0.2-0.9,0.7-1.1
												c0.3-0.1,0.6,0,0.8,0.2s0.3,0.3,0.4,0.5c0.2,0.3,0.3,0.7,0.4,1c0.1,0.7,0.1,1.3-0.1,1.8c-0.3,1-0.9,1.4-0.9,1.4
												c-0.1-0.1,0.3-0.5,0.5-1.5c0.1-0.5,0.1-1,0-1.6c-0.1-0.3-0.2-0.6-0.3-0.9c-0.2-0.3-0.4-0.5-0.5-0.5
												c-0.2,0.1-0.3,0.4-0.4,0.7c-0.1,0.3-0.1,0.7-0.1,1c0,0.6,0.1,1.2,0.2,1.7C583.5,292.8,583.9,293.3,583.8,293.4z"/>
										</g>
									</g>
								</g>
							</g>
						</g>
					</g>
					<g>
						<g>
							<path class="st10" d="M485.3,146.5c0,0-14.7,29.1-4.8,35.9c9.9,6.8,55.9,41.4,55.9,41.4l23.5,62.7l22-9l-18.3-73.4
								l-46.3-41.6L485.3,146.5z"/>
						</g>
					</g>
					<g>
						<g>
							<g>
								<path class="st11" d="M541.8,212.3c0.1,0.1-1.4,2.1-2.5,5c-1.2,2.9-1.4,5.4-1.6,5.3c-0.1,0-0.1-2.6,1.1-5.5
									C540,214.1,541.7,212.2,541.8,212.3z"/>
							</g>
						</g>
					</g>
					<g>
						<g>
							<g>
								<path class="st11" d="M538.1,211.7c0.2,0-0.5,2.4-0.7,5.4s0,5.5-0.1,5.5s-0.6-2.4-0.4-5.5C537.1,214,538,211.6,538.1,211.7z
									"/>
							</g>
						</g>
					</g>
					<g>
						<g>
							<g>
								<path class="st11" d="M562.1,285.6c0,0-0.1-0.1-0.1-0.3c-0.1-0.2-0.2-0.5-0.4-0.9c-0.3-0.9-0.8-2.1-1.4-3.6
									c-1.2-3.2-3-7.8-5.1-13.5s-4.6-12.6-7.3-20.4c-0.7-1.9-1.3-3.9-1.9-6c-0.6-2.1-1.2-4.2-2.1-6.3c-1.7-4.2-3.7-8.4-5.9-12.7
									l0.1,0.1c-2.5-2.1-5.1-4.3-7.8-6.5c-2.1-1.7-4.2-3.4-6.3-5s-4.2-3.2-6.2-4.7c-4.1-3.1-8-6.1-11.8-8.8s-7.6-5.1-11-7.5
									s-6.6-4.7-9.1-7.3c-1.3-1.3-2.4-2.6-3.2-3.9c-0.9-1.4-1.4-2.8-1.8-4.2c-0.7-2.8-0.4-5.3-0.1-7.2c0.4-2,0.9-3.4,1.3-4.4
									c0.2-0.5,0.4-0.9,0.5-1.1c0.1-0.2,0.2-0.4,0.2-0.4s0,0.1-0.1,0.4c-0.1,0.3-0.2,0.6-0.4,1.1c-0.3,1-0.8,2.5-1.2,4.4
									c-0.3,1.9-0.5,4.4,0.2,7.1c0.3,1.4,0.9,2.7,1.8,4.1c0.8,1.3,1.9,2.6,3.2,3.9c2.5,2.5,5.6,4.8,9.1,7.2
									c3.4,2.3,7.2,4.7,11.1,7.4c3.8,2.7,7.8,5.7,11.8,8.7c2,1.5,4.1,3.1,6.2,4.7c2.1,1.6,4.2,3.3,6.3,5c2.7,2.2,5.3,4.4,7.8,6.5
									l0,0l0,0c2.2,4.3,4.2,8.5,5.9,12.7c0.9,2.1,1.5,4.2,2.1,6.3s1.3,4.1,1.9,6c2.6,7.8,5.1,14.7,7.1,20.4
									c2.1,5.7,3.8,10.3,4.9,13.6c0.6,1.6,1,2.8,1.3,3.7c0.1,0.4,0.3,0.7,0.3,1C562.1,285.5,562.1,285.6,562.1,285.6z"/>
							</g>
						</g>
					</g>
				</g>
				<g>
					<g>
						<polygon class="st10" points="503.4,155.8 531.7,159.8 546.3,163.5 526.4,170.7 						"/>
					</g>
				</g>
				<g>
					<g>
						<g>
							<path class="st10" d="M468.7,153.8c0,0-0.2,0.3-0.6,0.7s-1,1-1.8,1.6c-1.6,1.3-4,2.9-6.9,4.1c-2.9,1.2-5.7,1.8-7.8,2
								c-1,0.1-1.9,0.2-2.4,0.1c-0.6,0-0.9,0-0.9-0.1s1.3-0.1,3.3-0.4c2-0.3,4.8-1,7.7-2.2c2.9-1.2,5.3-2.7,6.9-3.9
								C467.7,154.6,468.6,153.7,468.7,153.8z"/>
						</g>
					</g>
				</g>
				<g>
					<g>
						<g>
							<path class="st5" d="M489,112.2l-5.5,41.1c0,0,18.2-1.2,31,3.1s20.7,4.1,20.7,4.1l-2.7-25.6l9.6-21l4.2,24.5l19.7,20.2
								l12.8-2.9l-13.3-22.2l-9.2-45.3c0,0,0,0,0-0.1c-0.8-3.8-2.8-7.2-5.8-9.6l-0.4-0.3l-19.3-10.6l-6.5,0.1
								c-7.1,0.2-12.7,1-16.3,1.7c-3.3,0.6-6.6,2.3-8.8,4.7l0,0c-1.6,1.7-3.6,4.9-4.5,8.4L489,112.2z"/>
						</g>
					</g>
					<g>
						<g>
							<g>
								<path class="st10" d="M550.3,95.1c0,0-0.1,0.5-0.5,1.3c-0.4,0.9-0.9,2.1-1.5,3.5c-1.3,3-3,7.1-5,11.6
									c-2,4.4-3.8,8.5-5.1,11.5c-0.6,1.4-1.2,2.6-1.6,3.5c-0.4,0.8-0.6,1.2-0.6,1.3c0,0,0.1-0.5,0.4-1.3c0.3-0.8,0.8-2,1.4-3.5
									c1.2-3,3-7.1,5-11.6s3.8-8.6,5.1-11.5c0.6-1.4,1.2-2.6,1.6-3.5C550.1,95.5,550.3,95,550.3,95.1z"/>
							</g>
						</g>
					</g>
					<g>
						<g>
							<g>
								<path class="st5" d="M495.8,87.9c3.8,10.5,11,34.4,14.5,43.6c1.1,2.8,2.9,5.3,5.2,7.1l39,27.6l9-11.7l-29.2-28.2l-15.8-46.7
									c-2.2-6.2-11.4-9.6-17.2-6.3l0,0C497.1,75.9,494.1,83.1,495.8,87.9z"/>
							</g>
						</g>
						<g>
							<g>
								<g>
									<path class="st10" d="M519.3,81.6c0,0,0.1,0.3,0.3,0.8c0.2,0.6,0.5,1.4,0.8,2.4c0.7,2.1,1.8,5.2,3.1,9
										c2.7,7.8,6.5,19,11,32.5l-0.1-0.1c8.6,8.3,18.6,17.9,29.3,28.2l0.2,0.2l-0.1,0.2c-2.1,2.7-4.3,5.5-6.5,8.4
										c-0.9,1.1-1.7,2.2-2.5,3.3l-0.2,0.2l-0.2-0.1c-10.7-7.7-20.8-15-29.9-21.6c-2.3-1.7-4.5-3.3-6.7-4.8
										c-0.5-0.4-1.1-0.8-1.6-1.2s-1.1-0.8-1.6-1.2c-1-0.9-1.8-1.9-2.5-3s-1.2-2.2-1.6-3.4c-0.4-1.1-0.9-2.2-1.3-3.3
										c-0.8-2.2-1.6-4.3-2.3-6.3c-2.9-8-5-14.5-6.4-19.1c-0.7-2.2-1.2-4-1.6-5.2c-0.2-0.6-0.3-1-0.4-1.4
										c-0.1-0.3-0.1-0.5-0.1-0.5s0.1,0.2,0.2,0.5s0.3,0.8,0.5,1.3c0.4,1.2,1,2.9,1.7,5.2c1.5,4.5,3.7,11,6.6,19
										c0.7,2,1.5,4.1,2.3,6.3c0.4,1.1,0.9,2.2,1.3,3.3c0.4,1.1,0.9,2.2,1.6,3.3c0.7,1,1.5,2,2.4,2.9c0.5,0.4,1,0.8,1.5,1.2
										s1.1,0.8,1.6,1.2c2.2,1.6,4.4,3.2,6.7,4.8c9.2,6.6,19.3,13.9,30,21.5l-0.4,0.1c0.8-1,1.7-2.2,2.5-3.3
										c2.2-2.9,4.4-5.7,6.5-8.4v0.3c-10.7-10.3-20.6-20-29.2-28.2l0,0v-0.1c-4.5-13.5-8.2-24.7-10.9-32.5c-1.3-3.9-2.3-7-3-9.1
										c-0.3-1-0.6-1.8-0.8-2.4C519.4,81.9,519.3,81.6,519.3,81.6z"/>
								</g>
							</g>
						</g>
					</g>
					<g>
						<g>
							<g>
								<path class="st10" d="M515.6,75.9c-0.1,0.1-0.7-0.6-2-1.4s-3.2-1.6-5.5-1.7s-4.3,0.5-5.6,1.2c-1.3,0.7-2.1,1.3-2.1,1.2
									c0,0,0.6-0.8,1.9-1.5c1.3-0.8,3.4-1.5,5.8-1.4s4.4,1,5.6,1.9C515.1,75.1,515.6,75.9,515.6,75.9z"/>
							</g>
						</g>
					</g>
					<g>
						<g>
							<g>
								<path class="st10" d="M566.4,134.3c0,0.2-1.8,0-4,0.5s-3.7,1.5-3.8,1.4s1.4-1.3,3.7-1.9
									C564.5,133.7,566.4,134.1,566.4,134.3z"/>
							</g>
						</g>
					</g>
					<g>
						<g>
							<g>
								<path class="st9" d="M500.9,103.7c0,0-0.1,0.1-0.4,0.1c-0.3,0.1-0.6,0.1-1.1,0.2c-0.9,0.1-2.2,0.1-3.6-0.2
									c-1.4-0.3-2.5-1-3.3-1.5c-0.4-0.3-0.7-0.5-0.9-0.7c-0.2-0.2-0.3-0.3-0.3-0.3c0-0.1,1.8,1.5,4.5,2.2
									C498.6,104.1,500.9,103.5,500.9,103.7z"/>
							</g>
						</g>
					</g>
					<g>
						<g>
							<g>
								<path class="st9" d="M503.9,112.6c0,0-0.7-0.5-1.8-1.1c-1.2-0.6-3-1.1-5-1.3c-2-0.2-3.9,0-5.2,0.1c-0.6,0.1-1.1,0.1-1.6,0.1
									c-0.4,0-0.6,0-0.6,0s0.2-0.1,0.6-0.1c0.4-0.1,0.9-0.1,1.6-0.2c1.3-0.2,3.2-0.3,5.2-0.2c2,0.2,3.8,0.7,5,1.3
									c0.6,0.3,1,0.6,1.3,0.8C503.8,112.4,504,112.6,503.9,112.6z"/>
							</g>
						</g>
					</g>
					<g class="st12">
						<g>
							<g>
								<path d="M498.9,97.4c0,0,1,15.6,2.2,22.9c1.1,7.2,3.5,14.6,8.6,19.8c5.2,5.2,12.6,7.5,19.8,9c-2.3-1.8-4.6-3.6-6.9-5.4
									c-2.9-2.4-7.1-4.8-9.5-7.7c-4.5-5.7-5.5-12.9-7.8-19.7C503.3,109.8,501,103.8,498.9,97.4"/>
							</g>
						</g>
					</g>
					<g>
						<g>
							<g>
								<path class="st9" d="M526.1,103.6c0,0-0.3,0.2-0.8,0.4c-0.6,0.2-1.4,0.4-2.5,0.4c-2.2,0-5-1-8.2-0.7c-3.2,0.2-6,1.4-7.8,2.5
									c-0.9,0.5-1.6,1.1-2.1,1.4c-0.2,0.2-0.4,0.3-0.5,0.4s-0.2,0.1-0.2,0.1s0.9-1,2.7-2.2c1.8-1.1,4.6-2.4,7.9-2.6
									c3.3-0.3,6.1,0.8,8.3,0.8c1.1,0,1.9-0.1,2.5-0.3C525.8,103.7,526.1,103.5,526.1,103.6z"/>
							</g>
						</g>
					</g>
					<g>
						<g>
							<g>
								<path class="st9" d="M523.2,96c0,0-0.1,0.1-0.2,0.1c-0.2,0.1-0.4,0.2-0.6,0.3c-0.5,0.3-1.2,0.7-2.2,1.1
									c-1.9,0.9-4.5,1.9-7.6,2.6s-5.9,1-8,1.1c-1,0-1.9,0-2.4,0c-0.2,0-0.5,0-0.7,0s-0.2,0-0.2,0s0.1,0,0.2,0c0.2,0,0.4,0,0.7,0
									c0.6,0,1.4,0,2.4,0c2.1-0.1,4.9-0.4,7.9-1.1s5.7-1.7,7.6-2.6c0.9-0.4,1.7-0.8,2.2-1c0.2-0.1,0.4-0.2,0.6-0.3
									C523.1,96,523.2,96,523.2,96z"/>
							</g>
						</g>
					</g>
					<g>
						<g>
							<g>
								<path class="st9" d="M545.3,104.2c0,0-0.1,0-0.3-0.1c-0.2,0-0.4-0.1-0.8-0.3c-0.6-0.3-1.5-0.8-2.4-1.6
									c-1.9-1.6-3.7-4.7-6.6-7c-2.9-2.4-6.2-3.6-8.5-4.2c-1.2-0.3-2.2-0.4-2.9-0.5c-0.3,0-0.6-0.1-0.8-0.1s-0.3,0-0.3,0
									s1.5-0.1,4,0.5c2.4,0.5,5.7,1.8,8.6,4.2c1.5,1.2,2.7,2.5,3.7,3.8s2,2.4,2.9,3.2c0.9,0.8,1.8,1.4,2.4,1.6
									C544.9,104.1,545.3,104.1,545.3,104.2z"/>
							</g>
						</g>
					</g>
					<g>
						<g>
							<g>
								<path class="st9" d="M544.1,108.9c0,0-0.3-0.1-0.8-0.2c-0.5-0.2-1.2-0.6-2-1.2s-1.6-1.5-2.5-2.5s-1.8-2.1-3-3
									s-2.5-1.5-3.8-1.7s-2.5-0.1-3.5-0.1c-1,0.1-1.8,0.2-2.3,0.3c-0.2,0-0.4,0.1-0.6,0.1c-0.1,0-0.2,0-0.2,0s0.1,0,0.2-0.1
									c0.2,0,0.4-0.1,0.6-0.1c0.5-0.1,1.3-0.2,2.3-0.3c1-0.1,2.2-0.2,3.5,0s2.7,0.7,3.9,1.7s2.1,2.1,3,3.1s1.6,1.9,2.4,2.5
									c0.8,0.6,1.5,1,2,1.3C543.9,108.8,544.1,108.9,544.1,108.9z"/>
							</g>
						</g>
					</g>
					<g>
						<g>
							<g>
								<path class="st9" d="M559.5,105.7c0,0-0.8-0.3-2.2-0.2c-0.7,0.1-1.5,0.2-2.4,0.5s-1.8,0.7-2.8,1.2c-1,0.4-1.9,0.8-2.8,1
									c-0.9,0.2-1.8,0.2-2.5,0.1s-1.2-0.3-1.6-0.5c-0.3-0.2-0.5-0.4-0.5-0.4c0-0.1,0.7,0.6,2.1,0.7c0.7,0.1,1.5,0,2.4-0.2
									s1.8-0.6,2.8-1s1.9-0.9,2.8-1.2c0.9-0.3,1.7-0.5,2.4-0.5s1.3,0.1,1.7,0.2C559.3,105.6,559.5,105.7,559.5,105.7z"/>
							</g>
						</g>
					</g>
					<g>
						<g>
							<g>
								<path class="st9" d="M561,111.2c0,0.1-0.9-0.9-2.8-1c-0.9,0-2,0.1-3.1,0.6c-1.1,0.4-2.3,1.2-3.4,2c-1.2,0.8-2.3,1.6-3.4,2.1
									c-1.1,0.5-2.2,0.8-3.2,0.8c-0.9,0-1.7-0.1-2.2-0.3c-0.5-0.2-0.7-0.4-0.7-0.4c0-0.1,1,0.7,2.9,0.6c0.9-0.1,2-0.3,3.1-0.9
									c1.1-0.5,2.2-1.3,3.4-2.1c1.2-0.8,2.3-1.5,3.5-2c1.2-0.4,2.3-0.6,3.2-0.5s1.7,0.3,2.1,0.6C560.9,110.9,561,111.2,561,111.2z
									"/>
							</g>
						</g>
					</g>
					<g class="st12">
						<g>
							<g>
								<path d="M544.4,127.3c2-8.2,2.4-17.1,2.7-25.5c-0.7,2.9-2.5,5.5-3.6,8.3c-0.5,1.3-1.4,3.8-1.4,3.8l2.3,13.2"/>
							</g>
						</g>
					</g>
				</g>
				<g>
					<g>
						<g>
							<g>
								<path class="st10" d="M531.2,30.9c-0.2,1.5-1.3,2.9-2.8,3.3c-0.8,0.3-1.7,0.3-2.5,0.6s-1.6,1.1-1.4,1.9
									c0.1,0.6,0.7,1,1.2,1.5c0.5,0.4,0.9,1.1,0.6,1.7c-0.3,0.6-1.2,0.7-1.7,1.2c-0.5,0.6-0.3,1.5,0.1,2.1c0.5,0.6,1.1,1,1.8,1.4
									c0.6,0.4,1.2,1,1.4,1.7"/>
							</g>
						</g>
						<g>
							<g>
								<g>
									<path class="st10" d="M560.9,43.9c2.2-4.6,0.6-10.4-2.8-14.3c-3.4-3.8-8.3-6-13.3-7.4c-0.7-0.2-1.6-0.4-2.1,0.2
										c-0.4,0.5-0.3,1.3,0.1,1.8c0.4,0.5,1.1,0.7,1.7,1c-2-1-4.2-1.7-6.4-1.8c-0.8,0-1.6,0.1-2.3,0.5s-1.1,1.2-0.9,2
										c0.2,0.7,1.3,1.2,1.9,0.6c-2.1-0.2-4.3,0.3-6.1,1.4c-1.3,0.8-2.4,2.2-2.1,3.7c0.2,0.9,0.8,1.6,1.1,2.4
										c0.5,1.6-0.2,3.2-0.8,4.7c-0.9,2.4-1.4,5-1,7.5s1.8,4.9,4,6.2"/>
								</g>
							</g>
							<g>
								<g>
									<g>
										<g>
											<g>
												<g>
													<g>
														<g>
															<g>
																<g>
																	<g>
																		<g>
																			<path class="st14" d="M530.2,83.1c-5.6-1.5-8.8-7.3-7.2-12.8l9.2-31.1c2.1-8,10.4-12.6,18.4-10.3l0.7,0.3
																				c7.2,2.6,11.3,10.4,9.2,17.8c-1.9,6.9-4.1,14.5-5.4,18.1c-2.8,7.4-10.7,5.9-10.7,5.9l-1.9,5.6
																				C540.8,81.7,535.4,84.5,530.2,83.1L530.2,83.1z"/>
																		</g>
																	</g>
																</g>
															</g>
														</g>
													</g>
												</g>
											</g>
										</g>
										<g>
											<g>
												<g>
													<g>
														<g>
															<g>
																<g>
																	<g>
																		<g>
																			<path class="st17" d="M544.5,70.9c0,0-4.9-1.3-8.7-6.3c0,0,0.4,6.2,8,8.2L544.5,70.9z"/>
																		</g>
																	</g>
																</g>
															</g>
														</g>
													</g>
												</g>
											</g>
										</g>
									</g>
								</g>
							</g>
							<g>
								<g>
									<g>
										<path class="st10" d="M543.1,33.5c-0.6-1.3-1.4-4.3-2.4-5.3s-2.7-0.7-4.1-0.3c-1.5,0.4-2.7,1.5-3.2,3
											c-2,5.4-2.2,10.5-3.7,15.7c-0.1,0.4-0.2,0.7-0.1,1.1c0.3,0.9,1.3,1.2,2.2,1.4c2.3,0.3,3.5-1.3,4.5-3.3
											c0.2-0.4,0.7-3.2,0.8-3.7c0.3-3.6,2.4-6.8,5.6-8.3L543.1,33.5z"/>
									</g>
								</g>
								<g>
									<g>
										<path class="st10" d="M543.3,34"/>
									</g>
								</g>
							</g>
							<g>
								<g>
									<g>
										<g>
											<g>
												<g>
													<g>
														<g>
															<g>
																<g>
																	<path class="st14" d="M533.5,43.5c-0.1-0.1-4.6-3.4-6.3,1.8s3.8,5.8,3.9,5.6S533.5,43.5,533.5,43.5z"/>
																</g>
															</g>
														</g>
													</g>
												</g>
											</g>
										</g>
									</g>
								</g>
								<g>
									<g>
										<g>
											<g>
												<g>
													<g>
														<g>
															<g>
																<g>
																	<g>
																		<path class="st17" d="M530.2,48.5c0,0-0.1,0-0.3,0.1c-0.2,0-0.4,0-0.7-0.2c-0.5-0.4-0.7-1.4-0.4-2.3
																			c0.1-0.5,0.4-0.9,0.7-1.2s0.6-0.5,0.9-0.5c0.3,0,0.4,0.3,0.5,0.4c0,0.2,0,0.3,0,0.3s0.1-0.1,0.2-0.3
																			c0-0.1,0-0.3-0.1-0.4c-0.1-0.1-0.3-0.3-0.5-0.3c-0.4-0.1-0.9,0.1-1.2,0.5c-0.3,0.3-0.6,0.8-0.8,1.3
																			c-0.3,1.1-0.1,2.2,0.6,2.7c0.3,0.2,0.7,0.2,0.9,0.1C530.2,48.6,530.2,48.5,530.2,48.5z"/>
																	</g>
																</g>
															</g>
														</g>
													</g>
												</g>
											</g>
										</g>
									</g>
								</g>
							</g>
							<g>
								<g>
									<path class="st10" d="M541.1,34.6c2.5-1.7,5.2-0.9,6.9,0.1s3.2,2.5,5,3.4s4.1,1.2,5.7,0c1.2-0.9,1.7-2.5,1.8-4
										c0.2-2.9-0.7-5.8-2.6-8c-0.5-0.6-1.2-1.1-1.9-0.8c-0.9,0.4-0.7,1.6-0.4,2.5c0,0-8.7-3.2-14-1.4
										C536.3,28.4,541.1,34.6,541.1,34.6z"/>
								</g>
							</g>
							<g>
								<g>
									<g>
										<path class="st11" d="M544.4,22.1c0,0,0.1,0.4,0.4,1c0.3,0.6,0.8,1.5,1.7,2.3s2,1.7,3.5,2.4c0.7,0.3,1.5,0.6,2.4,0.8
											s1.8,0.3,2.7,0.6s1.8,0.7,2.5,1.3s1.2,1.4,1.5,2.1c0.3,0.8,0.4,1.6,0.3,2.4c-0.1,0.7-0.4,1.4-0.7,1.9
											c-0.7,1.1-1.7,1.6-2.4,1.8c-0.3,0.1-0.6,0.1-0.8,0.1s-0.3,0-0.3,0s0.4,0,1-0.3c0.6-0.2,1.5-0.8,2.1-1.8
											c0.3-0.5,0.6-1.1,0.6-1.8c0.1-0.7,0-1.4-0.3-2.2c-0.3-0.7-0.8-1.4-1.4-2c-0.6-0.6-1.5-0.9-2.3-1.2
											c-0.9-0.2-1.8-0.4-2.7-0.6c-0.9-0.2-1.7-0.5-2.4-0.9c-1.5-0.7-2.7-1.7-3.5-2.6s-1.4-1.8-1.6-2.5
											C544.6,22.6,544.5,22.3,544.4,22.1C544.4,22.2,544.4,22.1,544.4,22.1z"/>
									</g>
								</g>
							</g>
							<g>
								<g>
									<g>
										<path class="st11" d="M538.6,23.7c0,0,0.1,0.4,0.4,1c0.3,0.6,0.8,1.5,1.8,2.4c0.9,0.9,2.2,1.6,3.8,2.2
											c1.6,0.6,3.4,0.9,5.3,1.2c1.9,0.4,3.8,0.7,5.4,1.5c0.8,0.4,1.4,1,1.7,1.8s0.3,1.5,0.1,2.2c-0.4,1.3-1.3,2.1-1.8,2.4
											c-0.3,0.2-0.6,0.3-0.7,0.4c-0.2,0.1-0.3,0.1-0.3,0.1s0.4-0.2,0.9-0.6c0.5-0.4,1.4-1.2,1.6-2.4c0.1-0.6,0.1-1.3-0.2-1.9
											c-0.3-0.7-0.9-1.2-1.6-1.6c-1.5-0.7-3.3-1.1-5.2-1.5s-3.8-0.7-5.4-1.3c-1.6-0.6-3-1.4-3.9-2.3c-0.9-0.9-1.5-1.9-1.7-2.5
											c-0.1-0.3-0.2-0.6-0.2-0.8C538.6,23.8,538.6,23.7,538.6,23.7z"/>
									</g>
								</g>
							</g>
						</g>
					</g>
					<g>
						<g>
							<g>
								<g>
									<g>
										<g>
											<g>
												<g>
													<g>
														<g>
															<g>
																<g>
																	<g>
																		<g>
																			<g>
																				<g>
																					<g>
																						<g>
																							<g>
																								<g>
																									<g>
																										<g>
																											<path class="st10" d="M555.6,50.6c-0.2,0.6-0.9,1-1.5,0.8c-0.7-0.2-1-0.8-0.8-1.5c0.2-0.6,0.9-1,1.5-0.8
																												C555.4,49.3,555.8,50,555.6,50.6z"/>
																										</g>
																									</g>
																								</g>
																							</g>
																						</g>
																					</g>
																				</g>
																			</g>
																		</g>
																	</g>
																</g>
																<g>
																	<g>
																		<g>
																			<g>
																				<g>
																					<g>
																						<g>
																							<g>
																								<g>
																									<g>
																										<g>
																											<g>
																												<path class="st10" d="M557.8,49.9c-0.2,0.1-0.9-0.9-2.1-1.3c-1.2-0.4-2.4-0.1-2.5-0.3
																													c0-0.1,0.2-0.3,0.7-0.5s1.3-0.2,2,0.1c0.8,0.3,1.3,0.8,1.6,1.2C557.8,49.6,557.9,49.9,557.8,49.9z"/>
																											</g>
																										</g>
																									</g>
																								</g>
																							</g>
																						</g>
																					</g>
																				</g>
																			</g>
																		</g>
																	</g>
																</g>
															</g>
															<g>
																<g>
																	<g>
																		<g>
																			<g>
																				<g>
																					<g>
																						<g>
																							<g>
																								<g>
																									<g>
																										<g>
																											<path class="st10" d="M543.2,47c-0.2,0.6-0.9,1-1.5,0.8c-0.7-0.2-1-0.8-0.8-1.5c0.2-0.6,0.9-1,1.5-0.8
																												C543,45.8,543.4,46.4,543.2,47z"/>
																										</g>
																									</g>
																								</g>
																							</g>
																						</g>
																					</g>
																				</g>
																			</g>
																		</g>
																	</g>
																</g>
																<g>
																	<g>
																		<g>
																			<g>
																				<g>
																					<g>
																						<g>
																							<g>
																								<g>
																									<g>
																										<g>
																											<g>
																												<path class="st10" d="M545.4,45.9c-0.2,0.1-0.9-0.9-2.1-1.3c-1.2-0.4-2.4-0.1-2.5-0.3
																													c0-0.1,0.2-0.3,0.7-0.5s1.3-0.2,2,0.1c0.8,0.3,1.3,0.8,1.6,1.2C545.5,45.5,545.5,45.9,545.4,45.9z"/>
																											</g>
																										</g>
																									</g>
																								</g>
																							</g>
																						</g>
																					</g>
																				</g>
																			</g>
																		</g>
																	</g>
																</g>
															</g>
															<g>
																<g>
																	<g>
																		<g>
																			<g>
																				<g>
																					<g>
																						<g>
																							<g>
																								<g>
																									<g>
																										<g>
																											<path class="st10" d="M546.7,56.8c0-0.1,0.8,0.1,2.2,0.3c0.3,0.1,0.7,0.1,0.8-0.1c0.2-0.2,0.1-0.6,0.1-1
																												c0-0.9-0.1-1.8-0.1-2.8c-0.1-3.9-0.1-7.1,0.1-7.1c0.2,0,0.4,3.2,0.5,7.1c0,1,0,1.9,0.1,2.8
																												c0,0.4,0.1,0.9-0.3,1.3c-0.2,0.2-0.5,0.3-0.7,0.3s-0.4-0.1-0.6-0.1C547.5,57.1,546.7,56.8,546.7,56.8z"
																												/>
																										</g>
																									</g>
																								</g>
																							</g>
																						</g>
																					</g>
																				</g>
																			</g>
																		</g>
																	</g>
																</g>
															</g>
															<g>
																<g>
																	<g>
																		<g>
																			<g>
																				<g>
																					<g>
																						<g>
																							<g>
																								<g>
																									<g>
																										<g>
																											<path class="st10" d="M542.7,56.3c0.2,0.1-0.3,1.4,0.6,2.8c0.8,1.4,2.3,1.7,2.3,1.9c0,0.1-0.4,0.2-1,0
																												s-1.4-0.7-1.9-1.5c-0.5-0.8-0.5-1.7-0.4-2.3C542.4,56.6,542.7,56.3,542.7,56.3z"/>
																										</g>
																									</g>
																								</g>
																							</g>
																						</g>
																					</g>
																				</g>
																			</g>
																		</g>
																	</g>
																</g>
															</g>
														</g>
													</g>
												</g>
												<g>
													<g>
														<g>
															<g>
																<g>
																	<g>
																		<g>
																			<g>
																				<g>
																					<g>
																						<g>
																							<path class="st10" d="M547.4,41.1c-0.2,0.3-1.4-0.3-3-0.6c-1.5-0.4-2.9-0.3-2.9-0.7c0-0.2,0.3-0.4,0.9-0.6
																								c0.6-0.2,1.5-0.2,2.4,0s1.7,0.6,2.1,1C547.4,40.6,547.5,41,547.4,41.1z"/>
																						</g>
																					</g>
																				</g>
																			</g>
																		</g>
																	</g>
																</g>
															</g>
														</g>
													</g>
												</g>
												<g>
													<g>
														<g>
															<g>
																<g>
																	<g>
																		<g>
																			<g>
																				<g>
																					<g>
																						<g>
																							<path class="st10" d="M558.6,46.2c-0.3,0.2-1.1-0.4-2.1-0.8c-1-0.4-2-0.5-2.1-0.8c0-0.2,0.2-0.4,0.7-0.5
																								s1.2-0.1,1.9,0.1c0.7,0.3,1.2,0.7,1.5,1.2C558.7,45.7,558.7,46.1,558.6,46.2z"/>
																						</g>
																					</g>
																				</g>
																			</g>
																		</g>
																	</g>
																</g>
															</g>
														</g>
													</g>
												</g>
											</g>
										</g>
									</g>
								</g>
							</g>
						</g>
					</g>
				</g>
				<g>
					<g>
						<g>
							<path class="st11" d="M535,157.1c3,0.9,3.6,4.2,3.2,5.6l-6.8,2.7l-1.5-6.5L535,157.1z"/>
						</g>
					</g>
					<g>
						<g>
							<g>
								<path class="st11" d="M478.3,157.1c0,0,13.5-1.4,22,1.6s19.1,5.2,23.7,4.2c4.1-0.9,6.4-4,6.4-4s-13.5-1.6-19.8-3.7
									c-4.3-1.4-12.7-10.9-28.3-8.6L478.3,157.1z"/>
							</g>
						</g>
						<g>
							<g>
								<g>
									<path class="st11" d="M532.5,162c-0.4-1.3-1.3-2.3-2.2-3.3l0.1,0.2c-1.4,0.1-2.8,0.2-4.2,0.6c-1.4,0.4-2.7,1.1-3.6,2.2
										c-0.3,0.4-0.5,0.8-0.5,1.3c0,0.6,0.6,1.1,1.1,1.5c1.3,1,2.7,2.1,4.2,2.5c1.6,0.4,3.5,0.1,4.5-1.2
										C532.8,164.7,532.9,163.2,532.5,162z"/>
								</g>
							</g>
							<g>
								<g>
									<g>
										<path class="st10" d="M522.7,161.5c0,0,0.1-0.3,0.4-0.8c0.4-0.4,1.1-0.9,2-1.3c1-0.3,2.2-0.5,3.5-0.3s2.8,1,3.6,2.3
											c0.4,0.7,0.6,1.5,0.6,2.2c-0.1,0.7-0.3,1.4-0.7,2s-1,0.9-1.6,1.1c-0.6,0.2-1.2,0.2-1.7,0.2c-1-0.1-1.8-0.4-2.3-0.6
											c-0.3-0.1-0.5-0.2-0.6-0.3s-0.2-0.1-0.2-0.1s0.1,0,0.2,0.1c0.2,0.1,0.4,0.1,0.6,0.2c0.5,0.2,1.3,0.4,2.3,0.5
											s2.3-0.2,3-1.3c0.8-1,1-2.7,0.2-4s-2.2-2-3.5-2.3c-1.3-0.2-2.5,0-3.5,0.3s-1.6,0.8-2,1.2
											C522.8,161.2,522.7,161.5,522.7,161.5z"/>
									</g>
								</g>
							</g>
							<g>
								<g>
									<g>
										<path class="st9" d="M525.5,161.7c0,0-0.3-0.4-0.8-0.7s-1-0.5-0.9-0.5c0,0,0.5,0.1,1,0.4
											C525.3,161.3,525.6,161.7,525.5,161.7z"/>
									</g>
								</g>
							</g>
							<g>
								<g>
									<g>
										<path class="st9" d="M527.7,161.8c0,0-0.3-0.3-0.7-0.7c-0.4-0.3-0.8-0.6-0.8-0.6s0.4,0.2,0.8,0.5
											C527.5,161.5,527.7,161.8,527.7,161.8z"/>
									</g>
								</g>
							</g>
							<g>
								<g>
									<g>
										<path class="st9" d="M528.6,166.5c0,0-0.1-0.2-0.2-0.6c-0.1-0.4-0.3-0.8-0.6-1.3s-0.7-0.8-1-1.1c-0.3-0.2-0.5-0.4-0.5-0.4
											s0.2,0.1,0.5,0.3s0.7,0.6,1,1.1s0.5,1,0.6,1.3C528.6,166.2,528.6,166.5,528.6,166.5z"/>
									</g>
								</g>
							</g>
							<g>
								<g>
									<g>
										<path class="st9" d="M530.8,164.8c0,0,0-0.2,0-0.6c0-0.4,0-0.9-0.1-1.4s-0.3-1-0.4-1.3c-0.1-0.3-0.2-0.5-0.2-0.5
											s0,0,0.1,0.1s0.1,0.2,0.2,0.4c0.2,0.3,0.3,0.8,0.4,1.3c0.1,0.5,0.1,1,0.1,1.4c0,0.2,0,0.3-0.1,0.4
											C530.8,164.7,530.8,164.8,530.8,164.8z"/>
									</g>
								</g>
							</g>
							<g>
								<g>
									<g>
										<path class="st10" d="M530.8,160.6c0,0.1-1.5,0.5-3,1.6c-1.6,1.1-2.4,2.4-2.5,2.4c0,0,0.2-0.4,0.6-0.8
											c0.4-0.5,1-1.1,1.8-1.7c0.8-0.6,1.6-0.9,2.2-1.1C530.4,160.6,530.8,160.6,530.8,160.6z"/>
									</g>
								</g>
							</g>
							<g>
								<g>
									<g>
										<path class="st10" d="M527.5,159.5c0,0.1-1.1,0.7-1.9,2.1c-0.8,1.4-0.7,2.7-0.7,2.7s-0.1-0.3,0-0.8c0-0.5,0.2-1.2,0.6-2
											c0.4-0.7,0.9-1.2,1.3-1.6C527.2,159.6,527.5,159.5,527.5,159.5z"/>
									</g>
								</g>
							</g>
							<g>
								<g>
									<g>
										<path class="st10" d="M531.2,166.5c0,0-0.1-0.3-0.3-0.8s-0.6-1.1-1.2-1.6c-1.2-1-2.5-1.5-2.4-1.6c0,0,0.3,0.1,0.8,0.3
											s1.1,0.6,1.7,1.1c0.6,0.5,1,1.2,1.2,1.7C531.2,166.2,531.2,166.5,531.2,166.5z"/>
									</g>
								</g>
							</g>
						</g>
						<g>
							<g>
								<g>
									<path class="st10" d="M502.8,159.4c0,0-0.5-0.1-1.3-0.2c-0.8-0.2-2.1-0.5-3.6-0.7c-3-0.6-7.3-1.2-12-1.4
										c-2.4-0.1-4.6,0-6.6,0.5s-3.6,1.4-4.8,2.4c-2.4,1.9-3.3,3.7-3.4,3.6c0,0,0.2-0.5,0.7-1.2s1.3-1.7,2.5-2.7s2.9-2,4.9-2.5
										c2-0.6,4.3-0.7,6.7-0.6c4.8,0.2,9,0.9,12.1,1.6c1.5,0.3,2.7,0.7,3.6,0.9C502.4,159.2,502.8,159.3,502.8,159.4z"/>
								</g>
							</g>
						</g>
						<g>
							<g>
								<g>
									<path class="st10" d="M403.4,145.8c0,0,0.2-0.2,0.7-0.5s1.2-0.8,2.2-1.2c2-0.8,5.2-1.6,9.1-0.7c1.9,0.5,3.9,1.4,5.6,2.9
										c1.8,1.5,3.3,3.4,4.7,5.5c1.5,2.1,3,4.3,4.8,6.4c1.8,2.1,3.8,4.2,6,6.1c4.4,3.8,9.2,7,14,8.5c2.4,0.8,4.8,1.2,7.1,1.2
										c2.2,0,4.3-0.5,6-1.5c1.6-1,2.8-2.3,3.7-3.5c0.9-1.2,1.7-2.3,2.3-3.2c0.6-0.9,1-1.6,1.4-2.1c0.3-0.5,0.5-0.7,0.5-0.7
										s-0.1,0.3-0.4,0.8s-0.7,1.2-1.3,2.1c-0.6,0.9-1.3,2-2.2,3.3c-0.9,1.2-2.1,2.6-3.8,3.7c-1.7,1.1-3.9,1.6-6.1,1.6
										c-2.3,0-4.8-0.4-7.2-1.1c-4.9-1.6-9.8-4.7-14.2-8.6c-2.2-2-4.3-4-6.1-6.2c-1.8-2.1-3.3-4.4-4.8-6.5s-2.9-4-4.6-5.5
										s-3.6-2.4-5.5-2.9c-3.7-1-6.9-0.2-8.9,0.5C404.3,145.1,403.4,145.9,403.4,145.8z"/>
								</g>
							</g>
						</g>
						<g>
							<g>
								<g>
									<path class="st9" d="M428.3,136.9c0,0-0.3,0-0.7,0c-0.5,0-1.1,0.1-1.9,0.1c-1.6,0.2-3.8,0.6-6.1,1.5
										c-2.3,0.9-4.2,2.1-5.6,3c-0.7,0.5-1.2,0.9-1.5,1.2s-0.5,0.4-0.5,0.4s0.7-0.7,2-1.7s3.2-2.1,5.6-3c2.3-0.9,4.5-1.3,6.2-1.5
										C427.3,136.9,428.3,136.9,428.3,136.9z"/>
								</g>
							</g>
						</g>
						<g>
							<g>
								<g>
									<path class="st9" d="M444.3,146.7c0,0-0.3,0-0.7,0.1c-0.5,0.1-1.2,0.2-2,0.3c-1.7,0.3-3.9,1-6.3,2.1
										c-2.3,1.1-4.3,2.5-5.6,3.6c-0.7,0.5-1.2,1-1.5,1.3s-0.5,0.5-0.5,0.5s0.7-0.8,2-1.9c1.3-1.1,3.2-2.5,5.6-3.6
										s4.6-1.8,6.3-2.1C443.3,146.7,444.3,146.7,444.3,146.7z"/>
								</g>
							</g>
						</g>
						<g>
							<g>
								<g>
									<path class="st9" d="M443.8,169.4c0,0-0.1-0.3-0.1-0.8c-0.1-0.5-0.1-1.2-0.1-2.1c0.1-1.8,0.7-4.3,2.1-6.7
										c1.3-2.4,3-4.3,4.1-5.6c1.2-1.3,2-2.1,2-2.1s-0.2,0.2-0.5,0.6c-0.4,0.5-0.9,1-1.4,1.6c-1.2,1.4-2.8,3.3-4.1,5.6
										c-1.3,2.4-2,4.8-2.1,6.6c-0.1,0.9,0,1.6,0,2.1c0,0.2,0.1,0.4,0.1,0.6C443.8,169.4,443.8,169.4,443.8,169.4z"/>
								</g>
							</g>
						</g>
						<g>
							<g>
								<g>
									<path class="st9" d="M461.4,159.3c0,0-0.1-0.3-0.3-0.8c-0.1-0.5-0.3-1.2-0.3-1.9c0-0.8,0.1-1.5,0.2-2s0.2-0.8,0.2-0.8
										s-0.1,0.3-0.2,0.8s-0.2,1.2-0.2,1.9c0,0.8,0.1,1.4,0.2,1.9C461.4,159,461.4,159.3,461.4,159.3z"/>
								</g>
							</g>
						</g>
						<g>
							<g>
								<g>
									<path class="st9" d="M464.5,171.5c0,0-0.7-0.4-1.6-1.2s-2.1-2.1-3.1-3.7c-1-1.6-1.6-3.2-1.9-4.4s-0.3-2-0.3-2
										s0,0.2,0.1,0.5s0.2,0.8,0.3,1.4c0.3,1.2,0.9,2.8,1.9,4.4c1,1.6,2.1,2.9,3.1,3.7c0.5,0.4,0.8,0.7,1.1,0.9
										C464.4,171.4,464.5,171.5,464.5,171.5z"/>
								</g>
							</g>
						</g>
						<g>
							<g>
								<g>
									<path class="st9" d="M478,157.7c0,0-0.5-0.2-1.3-0.7s-1.8-1.1-2.9-2s-2-1.7-2.6-2.4s-1-1.1-1-1.1s0.1,0.1,0.3,0.3
										c0.3,0.3,0.5,0.5,0.7,0.8c0.6,0.6,1.5,1.5,2.6,2.4s2.1,1.5,2.9,2c0.3,0.2,0.6,0.4,0.9,0.5C477.9,157.6,478,157.7,478,157.7
										z"/>
								</g>
							</g>
						</g>
						<g>
							<g>
								<g>
									<path class="st9" d="M487.6,156.4c0,0,0-0.1,0-0.4c0-0.4,0-0.7,0-1.1c0-0.9-0.1-2.2-0.3-3.5c-0.2-1.4-0.4-2.6-0.6-3.5
										c-0.1-0.3-0.2-0.7-0.2-1c-0.1-0.2-0.1-0.4-0.1-0.4s0,0.1,0.1,0.4c0.1,0.2,0.2,0.6,0.3,1c0.2,0.9,0.5,2.1,0.7,3.5
										s0.3,2.6,0.3,3.5c0,0.5,0,0.8,0,1.1C487.6,156.2,487.6,156.4,487.6,156.4z"/>
								</g>
							</g>
						</g>
						<g>
							<g>
								<g>
									<path class="st9" d="M500.1,149.6c0,0,0,0.1,0,0.3c0,0.3-0.1,0.6-0.1,0.9c-0.1,0.7-0.2,1.8-0.5,2.9
										c-0.2,1.1-0.5,2.1-0.7,2.8c-0.1,0.3-0.2,0.6-0.3,0.8c-0.1,0.2-0.1,0.3-0.1,0.3s0-0.1,0.1-0.3c0.1-0.3,0.2-0.6,0.2-0.9
										c0.2-0.7,0.5-1.7,0.7-2.8s0.4-2.1,0.5-2.9c0-0.3,0.1-0.6,0.1-0.9C500,149.7,500,149.6,500.1,149.6z"/>
								</g>
							</g>
						</g>
						<g>
							<g>
								<g>
									<path class="st9" d="M508.5,157.8c0,0,0.1-0.7,0.3-1.6c0.2-0.9,0.4-1.6,0.4-1.6s-0.1,0.7-0.3,1.6S508.6,157.8,508.5,157.8z
										"/>
								</g>
							</g>
						</g>
						<g>
							<g>
								<g>
									<path class="st9" d="M522.5,162.4c0,0,0-0.3,0.1-0.7c0-0.4,0.1-1,0.1-1.6c0-0.4,0-0.9,0-1.6c0-0.1,0-0.3,0-0.5
										c0-0.1,0-0.2,0-0.2s0,0.3,0.1,0.7c0,0.4,0,1,0,1.6s-0.1,1.2-0.1,1.6C522.6,162.2,522.5,162.4,522.5,162.4z"/>
								</g>
							</g>
						</g>
						<g>
							<g>
								<g>
									<g>
										<path class="st11" d="M525.2,165.7c-1.1-4.4-5.5-7.2-10-7.9s-8.9,0.2-13.4,0.8c-4.5,0.6-9.2,0.7-13.2-1.4
											c-1.3,2.3-1.9,5-1.9,7.6c0.8,0,1.6,0,2.3,0.1c0.5,3.4,3.6,6,6.9,6.7s5.5,0.8,8.7-0.6c3.3-1.4,7.5-3.6,10.7-4.7
											C518.5,165.2,522.1,164.6,525.2,165.7"/>
									</g>
								</g>
								<g>
									<g>
										<g>
											<path class="st10" d="M491,158.3c0,0-0.1,0.4-0.4,0.9c-0.2,0.6-0.6,1.4-0.8,2.3c-0.3,0.9-0.4,1.8-0.5,2.4
												c-0.1,0.6-0.1,1-0.1,1s-0.1-0.4,0-1c0-0.6,0.2-1.5,0.4-2.4c0.3-0.9,0.6-1.7,0.9-2.3C490.7,158.6,491,158.3,491,158.3z"/>
										</g>
									</g>
								</g>
							</g>
							<g>
								<g>
									<g>
										<path class="st10" d="M489.3,163c0,0.1-0.6,0-1.2-0.1c-0.7-0.1-1.2-0.1-1.2-0.2c0-0.1,0.6-0.1,1.3,0
											C488.8,162.8,489.4,163,489.3,163z"/>
									</g>
								</g>
							</g>
							<g>
								<g>
									<g>
										<path class="st10" d="M489.8,160.3c0,0-0.5-0.3-1.1-0.5s-1.1-0.2-1.1-0.3s0.6-0.1,1.2,0.1
											C489.5,159.9,489.9,160.3,489.8,160.3z"/>
									</g>
								</g>
							</g>
							<g>
								<g>
									<g>
										<path class="st10" d="M494.5,158.9c0,0,0.2,0,0.7,0s1.1,0,2,0c1.7,0,4.2-0.1,7.3-0.7c3.1-0.6,6.8-1,11-0.3
											c2.1,0.4,4.2,1.1,6.1,2.4c1.8,1.3,3.4,3.3,4.2,5.7l0.1,0.2l-0.2-0.1c-0.9-0.4-1.9-0.7-3-0.8c-2.6-0.2-5.1,0.6-7.4,1.3
											c-2.3,0.8-4.5,1.7-6.6,2.7c-1,0.5-2,0.9-3,1.4c-1,0.4-2,0.8-2.9,1.1c-2,0.5-3.9,0.5-5.6,0.2s-3.2-0.9-4.3-1.6
											c-1.1-0.8-1.9-1.7-2.4-2.5s-0.8-1.5-0.9-2s-0.2-0.8-0.2-0.8c0.1,0,0.1,1.1,1.1,2.7c0.5,0.8,1.3,1.7,2.4,2.5
											s2.6,1.3,4.3,1.6c1.7,0.2,3.6,0.2,5.5-0.2c1-0.2,1.9-0.6,2.9-1.1c1-0.4,2-0.9,3-1.4c2-1,4.2-1.9,6.6-2.7
											c2.3-0.8,4.8-1.5,7.5-1.3c1.1,0.1,2.2,0.4,3.1,0.8l-0.1,0.1c-0.7-2.3-2.3-4.2-4.1-5.5s-3.9-2.1-6-2.4
											c-4.1-0.7-7.9-0.3-10.9,0.3c-3.1,0.6-5.6,0.7-7.3,0.7C495.4,159,494.5,158.9,494.5,158.9z"/>
									</g>
								</g>
							</g>
							<g>
								<g>
									<g>
										<path class="st9" d="M494.3,171.1c0,0-0.1-0.2-0.2-0.5s-0.2-0.7-0.3-1.3c-0.2-1.1-0.4-2.7-0.3-4.4s0.5-3.2,0.9-4.3
											c0.2-0.5,0.4-0.9,0.5-1.2s0.2-0.4,0.2-0.4s-0.3,0.6-0.6,1.7c-0.3,1.1-0.7,2.6-0.8,4.2c-0.1,1.7,0,3.2,0.2,4.3
											C494.2,170.4,494.4,171,494.3,171.1z"/>
									</g>
								</g>
							</g>
							<g>
								<g>
									<g>
										<path class="st9" d="M503,165.2c0,0,0.1,0.3,0.2,0.8s0.2,1.2,0.4,2c0.4,1.6,0.8,2.8,0.8,2.8s-0.2-0.3-0.3-0.8
											c-0.2-0.5-0.4-1.2-0.6-2s-0.3-1.5-0.4-2C502.9,165.5,503,165.2,503,165.2z"/>
									</g>
								</g>
							</g>
							<g>
								<g>
									<g>
										<path class="st9" d="M501.7,161.8c0.1,0,0,0.7,0.1,1.6c0.1,0.9,0.2,1.6,0.2,1.6c-0.1,0-0.3-0.7-0.4-1.6
											C501.6,162.5,501.7,161.8,501.7,161.8z"/>
									</g>
								</g>
							</g>
							<g>
								<g>
									<g>
										<path class="st9" d="M503.9,158.3c0.1,0-0.2,0.7-0.4,1.5c-0.2,0.8-0.1,1.5-0.2,1.5s-0.2-0.7,0-1.6
											C503.5,158.9,503.8,158.3,503.9,158.3z"/>
									</g>
								</g>
							</g>
							<g>
								<g>
									<g>
										<path class="st9" d="M510.8,160.2c0,0-0.4-0.4-0.6-1.2c-0.2-0.7,0-1.4,0-1.3c0.1,0,0,0.6,0.2,1.3
											C510.5,159.7,510.9,160.2,510.8,160.2z"/>
									</g>
								</g>
							</g>
							<g>
								<g>
									<g>
										<path class="st9" d="M516.2,165.9c0,0-0.3-0.3-0.6-0.8s-0.7-1.2-1.1-2.1c-0.4-0.8-0.6-1.6-0.8-2.2c-0.1-0.6-0.2-1-0.2-1
											s0.1,0.4,0.3,0.9c0.2,0.6,0.4,1.4,0.8,2.2c0.4,0.8,0.7,1.6,1,2.1C516,165.5,516.2,165.8,516.2,165.9z"/>
									</g>
								</g>
							</g>
							<g>
								<g>
									<g>
										<path class="st9" d="M517.7,158.6c0,0.1-0.1,0.2-0.3,0.4s-0.3,0.4-0.3,0.4c-0.1,0,0-0.3,0.2-0.6
											C517.4,158.6,517.6,158.5,517.7,158.6z"/>
									</g>
								</g>
							</g>
							<g>
								<g>
									<g>
										<path class="st9" d="M525.6,166c0,0-0.1-0.1-0.3-0.3s-0.5-0.4-0.9-0.7c-0.8-0.5-2.1-1.1-3.8-1.3s-3.8,0-5.9,0.6
											c-2.2,0.7-4.4,1.8-6.8,2.8c-2.4,1.1-4.8,1.9-7,2c-2.3,0.2-4.3-0.1-6-0.5s-2.9-1-3.8-1.5c-0.4-0.2-0.7-0.4-0.9-0.6
											c-0.2-0.1-0.3-0.2-0.3-0.2s0.1,0.1,0.3,0.2c0.2,0.1,0.5,0.3,1,0.5c0.8,0.4,2.1,1,3.8,1.5c1.6,0.4,3.7,0.7,5.9,0.5
											c2.3-0.2,4.6-1,7-2c2.4-1,4.6-2.1,6.8-2.8s4.2-0.9,5.9-0.6c1.7,0.2,3,0.8,3.8,1.4C525.2,165.6,525.6,166,525.6,166z"/>
									</g>
								</g>
							</g>
							<g>
								<g>
									<g>
										<path class="st9" d="M508.9,161.3c0,0-0.2,0.1-0.7,0.3s-1.1,0.5-2,0.7c-1.7,0.6-4.1,1.2-6.8,1.1c-2.7,0-5.1-0.7-6.8-1.1
											c-1.7-0.5-2.7-0.9-2.7-0.9s0.3,0.1,0.7,0.2c0.6,0.2,1.3,0.4,2,0.6c1.7,0.5,4.1,1.1,6.8,1.1c2.7,0,5.1-0.5,6.8-1.1
											c0.8-0.3,1.5-0.5,2-0.7C508.6,161.4,508.9,161.3,508.9,161.3z"/>
									</g>
								</g>
							</g>
							<g>
								<g>
									<g>
										<path class="st9" d="M519.1,160.3c0,0-0.1-0.1-0.2-0.2c-0.2-0.1-0.4-0.3-0.7-0.4c-0.6-0.3-1.6-0.8-2.9-1
											c-1.3-0.2-2.8-0.3-4.5-0.1s-3.5,0.5-5.5,0.9c-3.9,0.8-7.5,0.6-10,0.3c-2.6-0.4-4.1-0.7-4.1-0.7s0.4,0.1,1.1,0.2
											c0.7,0.1,1.7,0.3,3,0.5c2.5,0.3,6.1,0.5,10-0.3c1.9-0.4,3.8-0.7,5.5-0.9s3.2-0.1,4.5,0.2c1.3,0.2,2.2,0.7,2.9,1
											C518.7,160,519.1,160.3,519.1,160.3z"/>
									</g>
								</g>
							</g>
							<g>
								<g>
									<g>
										<path class="st10" d="M525.4,165.5c-0.1,0.1-0.8-1.4-2.7-3c-1-0.8-2.3-1.6-3.9-2.1c-1.6-0.5-3.4-0.7-5.3-0.3
											c-1.9,0.3-3.5,1.2-5,2c-1.4,0.8-2.7,1.7-3.9,2.2c-1.2,0.6-2.2,0.9-2.9,1c-0.4,0.1-0.6,0.1-0.8,0.1c-0.2,0-0.3,0-0.3,0
											c0-0.1,1.6-0.1,3.8-1.4c1.1-0.6,2.4-1.4,3.8-2.3c1.4-0.9,3.2-1.8,5.1-2.1c2-0.3,3.9-0.1,5.5,0.4s3,1.4,3.9,2.2
											c1,0.9,1.6,1.7,2,2.3C525.2,165.1,525.4,165.5,525.4,165.5z"/>
									</g>
								</g>
							</g>
							<g>
								<g>
									<g>
										<path class="st10" d="M511.5,160.4c0,0.1-2.6,1.1-6.1,1.4c-3.5,0.3-6.3-0.3-6.2-0.5c0-0.2,2.8,0.2,6.2,0
											C508.7,161,511.4,160.3,511.5,160.4z"/>
									</g>
								</g>
							</g>
						</g>
						<g>
							<g>
								<g>
									<path class="st9" d="M506.5,157.3c-0.2-0.1-0.5-0.2-1.1-0.5c-0.7-0.3-1.8-0.8-3.3-1.3c-2.9-1-7.1-2.4-12.6-2.6
										c-2.7-0.1-5.7,0.2-8.8,1.1c-3.1,0.9-6.2,2.6-8.7,5.1c-2.6,2.5-4.8,5.6-7.8,8.2c-1.5,1.3-3.3,2.3-5.3,2.8s-4.1,0.3-6.1-0.4
										c-2-0.6-3.8-1.7-5.4-3s-2.9-2.8-4.1-4.3c-2.4-3.1-4.3-6.4-6.5-9.3c-2.2-2.9-4.5-5.4-6.9-7.5s-5-3.7-7.5-4.7
										c-5.1-2.1-9.7-2-12.6-1.3c-1.5,0.3-2.6,0.8-3.3,1.1c-0.6,0.3-0.9,0.4-1.1,0.5c0.2-0.1,0.5-0.3,1.1-0.6
										c0.7-0.3,1.8-0.8,3.3-1.1c2.9-0.7,7.6-0.8,12.7,1.2c2.5,1,5.1,2.6,7.6,4.7c2.5,2.1,4.8,4.6,6.9,7.5
										c2.2,2.9,4.1,6.2,6.5,9.3c1.2,1.5,2.5,3,4.1,4.3s3.4,2.3,5.3,3c2,0.6,4.1,0.8,6,0.4c2-0.5,3.7-1.5,5.2-2.8
										c3-2.5,5.2-5.7,7.8-8.2c2.6-2.6,5.7-4.2,8.8-5.1c3.1-0.9,6.1-1.2,8.8-1.1c5.5,0.2,9.7,1.6,12.6,2.6
										C505,156.6,506.5,157.3,506.5,157.3z"/>
								</g>
							</g>
						</g>
						<g>
							<g>
								<g>
									<path class="st9" d="M457.4,160.3c0,0-0.6,0.1-1.6-0.1c-1-0.1-2.5-0.6-4-1.6s-3-2.6-4.4-4.6s-2.8-4.2-4.6-6.3
										c-3.6-4.2-7.9-7.1-11.1-8.8c-1.6-0.9-3-1.4-3.9-1.8c-1-0.4-1.5-0.6-1.5-0.6s0.5,0.2,1.5,0.5c0.9,0.4,2.3,0.9,3.9,1.8
										c3.2,1.7,7.5,4.6,11.1,8.8c1.8,2.1,3.2,4.4,4.6,6.3c1.4,2,2.9,3.6,4.4,4.6s2.9,1.5,3.9,1.7c0.5,0.1,0.9,0.1,1.2,0.1
										C457.3,160.3,457.4,160.3,457.4,160.3z"/>
								</g>
							</g>
						</g>
						<g>
							<g>
								<g>
									<path class="st9" d="M503.5,151.8c0,0-0.1-0.1-0.3-0.2c-0.2-0.1-0.5-0.3-0.9-0.5c-0.8-0.4-1.9-1-3.3-1.6
										c-2.9-1.2-7.1-2.3-11.8-2.1c-4.7,0.1-8.9,1.5-11.7,2.9c-1.4,0.7-2.5,1.3-3.2,1.8c-0.4,0.2-0.6,0.4-0.8,0.5
										c-0.2,0.1-0.3,0.2-0.3,0.2s0.4-0.3,1.1-0.8s1.8-1.1,3.2-1.8c2.8-1.4,6.9-2.7,11.7-2.9c4.8-0.1,9,1,11.9,2.2
										c1.4,0.6,2.6,1.2,3.3,1.6C503.1,151.6,503.5,151.8,503.5,151.8z"/>
								</g>
							</g>
						</g>
						<g>
							<g>
								<g>
									<path class="st9" d="M483.2,156.3c0,0-0.1-0.1-0.1-0.4c-0.1-0.3-0.2-0.6-0.3-1.1c-0.3-0.9-0.8-2.1-1.4-3.4
										c-0.6-1.3-1.3-2.4-1.9-3.2c-0.3-0.4-0.5-0.7-0.7-0.9s-0.2-0.3-0.2-0.3s0.4,0.4,1,1.2s1.3,1.9,1.9,3.2s1.1,2.5,1.4,3.4
										C483.1,155.7,483.2,156.3,483.2,156.3z"/>
								</g>
							</g>
						</g>
						<g>
							<g>
								<g>
									<path class="st9" d="M493.8,147c0,0,0.1,0.6,0.1,1.5s0,2.2-0.2,3.5c-0.2,1.4-0.5,2.6-0.8,3.4c-0.3,0.9-0.5,1.4-0.5,1.4
										s0-0.1,0.1-0.4c0.1-0.3,0.2-0.7,0.3-1c0.2-0.9,0.5-2.1,0.7-3.4c0.2-1.4,0.3-2.6,0.3-3.5c0-0.4,0-0.7,0-1.1
										C493.8,147.1,493.8,147,493.8,147z"/>
								</g>
							</g>
						</g>
						<g>
							<g>
								<g>
									<path class="st9" d="M470.7,163.9c0,0-0.5-0.2-1.2-0.7s-1.6-1.2-2.6-2.2c-0.9-0.9-1.7-1.9-2.1-2.6
										c-0.5-0.7-0.7-1.2-0.7-1.2s0.1,0.1,0.2,0.3s0.3,0.5,0.6,0.8c0.5,0.7,1.2,1.6,2.2,2.5c0.9,0.9,1.8,1.7,2.5,2.2
										c0.3,0.3,0.6,0.5,0.8,0.6C470.6,163.9,470.7,163.9,470.7,163.9z"/>
								</g>
							</g>
						</g>
						<g>
							<g>
								<g>
									<path class="st9" d="M455.3,160.8c0,0-0.1-0.4-0.2-1c-0.1-0.7-0.2-1.6-0.1-2.6s0.3-1.9,0.4-2.5c0.2-0.6,0.4-1,0.4-1
										s0,0.1-0.1,0.3s-0.1,0.4-0.2,0.7c-0.2,0.6-0.3,1.5-0.4,2.5s0,1.9,0.1,2.6c0,0.3,0.1,0.6,0.1,0.8
										C455.3,160.7,455.3,160.8,455.3,160.8z"/>
								</g>
							</g>
						</g>
						<g>
							<g>
								<g>
									<path class="st9" d="M455.3,173.8c0,0-0.3-0.6-0.7-1.6c-0.4-1-0.9-2.5-1.2-4.1c-0.3-1.7-0.4-3.2-0.5-4.3
										c0-1.1,0.1-1.8,0.1-1.8s0,0.2,0,0.5s0,0.8,0,1.3c0,1.1,0.2,2.6,0.5,4.3c0.3,1.6,0.8,3.1,1.2,4.1c0.2,0.5,0.4,0.9,0.5,1.2
										C455.2,173.6,455.3,173.8,455.3,173.8z"/>
								</g>
							</g>
						</g>
						<g>
							<g>
								<g>
									<path class="st9" d="M467,153c0,0,0,0.4,0.2,0.8c0.2,0.4,0.4,0.7,0.4,0.7s-0.3-0.2-0.5-0.7S467,153,467,153z"/>
								</g>
							</g>
						</g>
						<g>
							<g>
								<g>
									<path class="st9" d="M447.5,149.2c0,0-0.2,0.1-0.6,0.4c-0.4,0.2-1,0.6-1.8,1c-1.5,0.9-3.4,2.2-5.3,4
										c-1.9,1.7-3.5,3.5-4.5,4.9c-0.5,0.7-0.9,1.2-1.2,1.6c-0.3,0.4-0.4,0.6-0.4,0.6s0.5-0.9,1.5-2.3c1-1.4,2.6-3.2,4.5-4.9
										s3.9-3.1,5.4-4C446.5,149.7,447.5,149.2,447.5,149.2z"/>
								</g>
							</g>
						</g>
						<g>
							<g>
								<g>
									<path class="st9" d="M435.5,139.2c0,0-0.2,0.1-0.6,0.2c-0.4,0.1-1,0.2-1.7,0.4c-1.4,0.4-3.4,1-5.4,2c-2,0.9-3.8,2-5,2.8
										c-0.6,0.4-1.1,0.8-1.4,1s-0.5,0.4-0.5,0.4s0.7-0.6,1.9-1.4c1.2-0.8,3-1.9,5-2.9c2.1-0.9,4-1.6,5.4-2
										C434.5,139.3,435.5,139.2,435.5,139.2z"/>
								</g>
							</g>
						</g>
						<g>
							<g>
								<g>
									<path class="st9" d="M517.1,156.8c0,0,0,0.3-0.1,0.6s-0.2,0.6-0.2,0.6s0-0.3,0.1-0.6C516.9,157.1,517,156.8,517.1,156.8z"
										/>
								</g>
							</g>
						</g>
					</g>
				</g>
				<g>
					<g>
						<g>
							<path class="st14" d="M562.5,156.4c0,0,4.5,0.9,6.4,1.4c0.6,0.1,1.3,0,1.9,0.2c3.1,0.5,7.2,0.3,8.3-0.1
								c1.9-0.7,2,1.7-0.1,2.8c-2.1,1-3.3,1.2-3.3,1.2l5,4c0.3,0.2,0.4,0.5,0.5,0.8l1.3,8.8c0.1,0.7-0.3,1.5-1,1.7
								c-0.4,0.1-0.7,0.1-1-0.3l0.1,1.2c0.2,2-2.7,2.5-3.1,0.5c0,0,0,0,0-0.1l-1.7,1c0,0-1.2,1.2-2.4-0.5c-1-1.4-4.1-6.9-4.1-6.9
								s-13.2-5.6-13-7.8L562.5,156.4z"/>
						</g>
					</g>
					<g>
						<g>
							<g>
								<path class="st17" d="M577.6,178.4c-0.1,0-0.2-0.8-0.4-2.1s-0.6-3.1-0.8-5.1c-0.2-1-0.4-2-0.6-2.7c-0.1-0.4-0.4-0.6-0.7-0.8
									s-0.6-0.4-0.9-0.6c-1.1-0.7-1.8-1.2-1.8-1.3s0.8,0.3,1.9,0.9c0.3,0.2,0.6,0.3,1,0.5s0.7,0.5,0.9,1c0.3,0.9,0.5,1.8,0.7,2.8
									c0.3,2,0.6,3.8,0.7,5.2C577.8,177.6,577.7,178.4,577.6,178.4z"/>
							</g>
						</g>
					</g>
					<g>
						<g>
							<g>
								<path class="st17" d="M580.6,176.7c-0.2,0-0.5-3.2-1.3-7c-0.2-0.9-0.4-1.9-0.8-2.5c-0.6-0.6-1.1-1.1-1.6-1.5
									s-0.9-0.7-1.2-0.9s-0.5-0.2-0.5-0.3c0,0,0.2-0.1,0.6,0.1c0.4,0.1,0.8,0.4,1.4,0.8c0.5,0.4,1.1,0.9,1.8,1.5
									c0.6,0.8,0.8,1.7,1,2.7c0.4,1.9,0.6,3.7,0.8,5C580.6,175.9,580.6,176.7,580.6,176.7z"/>
							</g>
						</g>
					</g>
					<g>
						<g>
							<g>
								<path class="st17" d="M569.8,168.4c0-0.1,0.7,0.3,1.7,0.8c0.3,0.2,0.6,0.3,0.8,0.5c0.3,0.2,0.7,0.3,0.9,0.7
									c0.3,0.3,0.4,0.8,0.6,1.2c0.1,0.4,0.3,0.8,0.4,1.3c1.1,3.4,1.8,6.2,1.7,6.3c-0.1,0-1.1-2.7-2.1-6.1
									c-0.1-0.4-0.3-0.8-0.4-1.2c-0.1-0.4-0.2-0.8-0.4-1c-0.2-0.3-0.5-0.4-0.8-0.6c-0.3-0.2-0.5-0.3-0.8-0.5
									C570.3,168.9,569.7,168.4,569.8,168.4z"/>
							</g>
						</g>
					</g>
					<g>
						<g>
							<g>
								<path class="st17" d="M570.1,158.9c0.1-0.2,1.9,0.5,4,1.7s3.6,2.5,3.5,2.6s-1.7-1-3.8-2.1c-0.9-0.5-1.7-1-2.7-1.5
									C570.5,159.1,570.1,158.9,570.1,158.9z"/>
							</g>
						</g>
					</g>
				</g>
			</g>
		</g>
		<text transform="matrix(1 0 0 1 46.4843 67.6337)" class="st5 st18 st19">WEB ADDRESS</text>
		<text transform="matrix(1 0 0 1 48.6843 119.6337)" class="st5 st18 st20">SHORTENER</text>
	</g>
</g>
</svg>
