<svg id="Layer_1" data-name="Layer 1" xmlns="http://www.w3.org/2000/svg" viewBox="0 0 707.35 75.76">
  <title>logo</title>
  <g>
    <path d="M10.63,38.71a3.23,3.23,0,0,0-.48-1.53,20.7,20.7,0,0,0,1-3.4c.23-1.11.4-2.18.53-3.2s.27-1.73.43-2.49a16.51,16.51,0,0,1,.62-2.2,4.28,4.28,0,0,0,2.44-1.39,17.32,17.32,0,0,0,1.29-1.77c1.15-.06,1.9.09,2.25.48a8.89,8.89,0,0,1,1.2,1.91,14,14,0,0,0,1.34,2.25,5.57,5.57,0,0,0,2.58,1.87c.2.7.42,1.37.67,2s.55,1.3.87,2C25.94,34.6,26.48,36,27,37.42a14.14,14.14,0,0,1,.86,4.07,20.39,20.39,0,0,0-1.77,5.07A36.82,36.82,0,0,0,25.46,58a19,19,0,0,0,1,4.5L27,64l2.11-.19a49.68,49.68,0,0,0,6.22-2,30.23,30.23,0,0,0,5.17-2.63,36.57,36.57,0,0,0,4.59-3.49,57.82,57.82,0,0,0,4.59-4.64A33.23,33.23,0,0,0,53.79,45a43.49,43.49,0,0,0,3-7,55.61,55.61,0,0,0,1.87-7.28,56.28,56.28,0,0,0,.86-6.79,3.29,3.29,0,0,0,2-2.78l-.29-1.24A1.47,1.47,0,0,1,61,19a2.87,2.87,0,0,1,.24-.82,5.47,5.47,0,0,1,3.26-3.25,28.43,28.43,0,0,1,3.2,2.49c1,.89,1.9,1.79,2.73,2.68a20.07,20.07,0,0,0,.77,4.45c.38,1.24.79,2.44,1.24,3.59s.85,2.14,1.2,3.16A15.92,15.92,0,0,1,74.37,35,35.38,35.38,0,0,0,73,40.39q-.44,2.53-.82,5.31l-.19,1c-1.15,2-2.28,4-3.39,6.08s-2,3.87-2.73,5.4a6.2,6.2,0,0,0-1,1.34c-.28.52-.56,1-.81,1.54-.13.19-.3.51-.53,1a3.69,3.69,0,0,1-.62,1l-2.3-.86-.57,3-1.53.38-1.15,1.34a33.88,33.88,0,0,1-4.64,6.41,31.78,31.78,0,0,1-5.46,4.59,51.91,51.91,0,0,1-6.79,3.78q-3.78,1.77-8.66,3.78a29.53,29.53,0,0,0-3.3-.33c-.93,0-1.84-.08-2.73-.14s-1.76,0-2.59-.1-1.78-.16-2.87-.29A2.6,2.6,0,0,0,18,82.93a6.5,6.5,0,0,1-2.87-2.68c-.64-1.15-1.31-2.43-2-3.83-.32-.77-.66-1.53-1-2.3a12.91,12.91,0,0,0-1.29-2.2l1.91-.57-2.49-2.88c-.19-.19-.4-.38-.62-.57A4,4,0,0,1,9,67.23V65.41q-.39-7.84-.33-14.5a37.17,37.17,0,0,1,1.77-11.72Z" transform="translate(-8.66 -13.81)" style="fill: #FFFFFF"/>
    <path d="M75.05,77.36c-.32.06-.6-.18-.86-.72a14.24,14.24,0,0,0-.86-1.58h1a7.89,7.89,0,0,1-.33-3.88c.22-1.18.49-2.33.81-3.44s.59-2.2.81-3.26a5.62,5.62,0,0,0-.33-3.3.45.45,0,0,0,.72-.24,5.73,5.73,0,0,0,.38-1.34,7.41,7.41,0,0,0,.1-1.72,13.74,13.74,0,0,0-.15-1.48,36.17,36.17,0,0,0,2-6.13q.72-3.15,1.3-6.27t1.29-6a33.52,33.52,0,0,1,1.86-5.5,5.89,5.89,0,0,1,2.83.34,3.67,3.67,0,0,1,2,1.29,25.55,25.55,0,0,0,5.26-5.55q2.3-3.26,4.65-6.37a31.11,31.11,0,0,1,5.31-5.5,13.85,13.85,0,0,1,7.37-2.87c1.53,1.08,3.25,2.25,5.16,3.49A15.84,15.84,0,0,1,120,21.94c.51.32,1,.66,1.49,1s1,.68,1.48,1v1.44a11.43,11.43,0,0,1,2.25,2.92,31,31,0,0,1,1.63,3.54c.47,1.24.94,2.5,1.38,3.78a26.18,26.18,0,0,0,1.53,3.54,2.55,2.55,0,0,0-.14,1,4.59,4.59,0,0,0,.19.86,5.72,5.72,0,0,1,.24,1,6.87,6.87,0,0,1,.1,1.3,13,13,0,0,1-3.3,8.18,23.2,23.2,0,0,1-7.09,5.07,60.72,60.72,0,0,1-8.85,3.35,82.08,82.08,0,0,0-8.52,3c0,.26.15.39.43.39s.37.19.24.57q2.88,1.73,4.45,2.78a32.49,32.49,0,0,0,3,1.77,16.1,16.1,0,0,0,3.06,1.19c1.12.32,2.67.71,4.64,1.15s3.53.82,4.65,1.1,2.12.51,3,.67,1.85.31,2.87.43,2.39.29,4.12.48a8.7,8.7,0,0,1,1.72,2.49,12.42,12.42,0,0,1,1,2.87,8.8,8.8,0,0,1,.14,2.73,3.74,3.74,0,0,1-.81,2.06.42.42,0,0,0,.52.33,3.15,3.15,0,0,1,.91,0,5,5,0,0,0-1.15,1.15c-.32.44-.63.89-1,1.34a8.57,8.57,0,0,1-1.1,1.24,2.68,2.68,0,0,1-1.58.67c-2.3.89-5.23.93-8.81.1A111.28,111.28,0,0,1,109,84.05q-4.12-1.53-6.7-2.77a47.51,47.51,0,0,1-4.5-2.44,29.81,29.81,0,0,1-3.54-2.58q-1.64-1.4-3.73-3.31a.47.47,0,0,0-.34.39.45.45,0,0,1-.33.38,24.15,24.15,0,0,1-1.49,6.22,21.92,21.92,0,0,1-2.92,4.88c-1-.19-1.7-.1-2,.29a6.34,6.34,0,0,1-1.3,1,2.27,2.27,0,0,1-1.43,0,5.45,5.45,0,0,1-.86-.52A9.9,9.9,0,0,0,79,85a2.67,2.67,0,0,0-1.53-.19l-.58-1.67q-.28-.83-1.53-.72a3.32,3.32,0,0,0,.19-1.49,5.59,5.59,0,0,0-.29-1.14c-.12-.35-.24-.72-.33-1.1A2.23,2.23,0,0,1,75.05,77.36Zm31.72-43.24a21.67,21.67,0,0,1-2.78,3.3q-1.53,1.48-3,3.06a20.68,20.68,0,0,0-2.63,3.45,12.75,12.75,0,0,0-1.63,4.45,33.13,33.13,0,0,0,8.42-2.25c2.94-1.18,5.71-2.31,8.33-3.4A10.05,10.05,0,0,0,111,37,10.56,10.56,0,0,0,106.77,34.12Z" transform="translate(-8.66 -13.81)" style="fill: #FFFFFF"/>
    <path d="M140.94,82.75a3.52,3.52,0,0,1-.67-.91,4.8,4.8,0,0,1-.48-1.38,12.46,12.46,0,0,1-2.11-3.74,20,20,0,0,1-1.05-4.35,21.58,21.58,0,0,1-.1-4.55,29.11,29.11,0,0,1,.67-4.3,19.7,19.7,0,0,0,.48-2c.32-1.21.64-2.41,1-3.59A7.75,7.75,0,0,1,140.07,55a3.23,3.23,0,0,1,.1-2.3c.32-.83.64-1.59,1-2.29a3.06,3.06,0,0,0,.28-.53c.07-.16.13-.3.2-.43.76-2.23,1.51-4.39,2.24-6.46s1.46-4.07,2.16-6q1.91-5.26,3.68-10.34t3.21-10.81a4.92,4.92,0,0,1,1.34-.77l.48-.19a2.2,2.2,0,0,1,.67-.1,32,32,0,0,0,4.73,2,15.36,15.36,0,0,0,4.65.91l1.62,1.43a19.42,19.42,0,0,1,2.16,3,6.14,6.14,0,0,1,.52,4.06,3.2,3.2,0,0,1-.95,1.06,33.4,33.4,0,0,1-1.25,3.87c-.45,1.12-.89,2.19-1.34,3.21s-1,2.3-1.43,3.44A24.59,24.59,0,0,0,163,42a3.43,3.43,0,0,0-.72,1.15c-.1.32-.21.64-.34,1a10.94,10.94,0,0,1-.47,1.2,3.24,3.24,0,0,1-.87,1.1,19.29,19.29,0,0,1-1.14,4.83c-.51,1.24-1,2.47-1.53,3.68-.9,2.24-1.73,4.45-2.49,6.66a26,26,0,0,0-1.34,7.51,8.73,8.73,0,0,1,2.1-.29,7.62,7.62,0,0,1,2.39.38,21.18,21.18,0,0,1,7.52-2.1q4.06-.39,8.08-.48c2.24,0,4.31-.1,6.23-.29a4.39,4.39,0,0,0,1.24.72,6.81,6.81,0,0,0,1,0h.57a4.43,4.43,0,0,1,.77.09A8.27,8.27,0,0,0,186.49,69c.83.35,1.72.69,2.68,1s1.64.65,2.44,1A11.69,11.69,0,0,1,194,72.42l.86,4.88c.51.7.73,1.18.67,1.43a2.3,2.3,0,0,1-.39,1.34l.19,1.25a6.75,6.75,0,0,0-2.39.81,12.61,12.61,0,0,0-1.24,1.1c-.7.07-1.37.1-2,.1a14.37,14.37,0,0,0-3.93.57,18.2,18.2,0,0,0-6.31-1.05c-.9,0-1.81,0-2.73.1s-1.83.16-2.73.28-1.91.24-2.87.34-1.91.14-2.87.14c-.76.13-1.31.22-1.63.29a4.92,4.92,0,0,0-1,.29q-3.25,1-7,2.1a28.28,28.28,0,0,1-7.61,1,13.71,13.71,0,0,1-9.09-2.87,9.19,9.19,0,0,0-.57-1.15A4.57,4.57,0,0,1,140.94,82.75Z" transform="translate(-8.66 -13.81)" style="fill: #FFFFFF"/>
    <path d="M235,42.92c.19-1,.32-1.74.38-2.34a2.82,2.82,0,0,0-.67-2q.39-1.53.63-2.4a6.34,6.34,0,0,0,0-2.39A10.71,10.71,0,0,1,238,29.62a19.1,19.1,0,0,1,3.87-2.92,27.29,27.29,0,0,1,4.4-2c1.54-.54,3-1,4.31-1.39a.34.34,0,0,0-.38-.38c-.26,0-.32-.16-.19-.48a71.28,71.28,0,0,0,10.38-2.77q5.22-1.83,10.67-3.26a58,58,0,0,1,11.2-1.77,35.82,35.82,0,0,1,12.06,1.49,9.64,9.64,0,0,0,1,2.2c.45.7.91,1.38,1.39,2.05s.91,1.33,1.29,2a4.61,4.61,0,0,1,.67,2,10.17,10.17,0,0,1,1.87,2.24,4.33,4.33,0,0,1,.24,3.21c-.71.51-1.44,1-2.21,1.53s-1.56,1-2.39,1.44a28.26,28.26,0,0,0-8.61-.77c-2.87.19-5.46.42-7.75.67a3.15,3.15,0,0,0-2.49-1.1,13,13,0,0,0-3,.48l-3.11.86a6.85,6.85,0,0,1-2.87.24,5.54,5.54,0,0,1-2.77,1.29c-1.15.23-2.36.4-3.64.53a.6.6,0,0,0,.19.67c.19.13.22.38.1.76a3.37,3.37,0,0,0,1.82,1.2c.76.22,1.54.43,2.34.62a8.58,8.58,0,0,1,2.15.82,2.51,2.51,0,0,1,1.25,1.67,6,6,0,0,1,3,.91,8.24,8.24,0,0,1,2.11,2A7.72,7.72,0,0,1,276.16,46a6.3,6.3,0,0,1,.29,2.35c.26.64.53.89.81.76s.63,0,1,.48a7.66,7.66,0,0,0,1.77,3A12.51,12.51,0,0,1,282.19,56c.13,1.92.24,3.64.34,5.17a9.7,9.7,0,0,1-.82,4.5A23.71,23.71,0,0,1,277,73.26a36.74,36.74,0,0,1-6.94,5.89,55,55,0,0,1-8.19,4.4,75.83,75.83,0,0,1-8.51,3.11,2,2,0,0,0-.91,0c-.35.06-.43-.13-.24-.58a4,4,0,0,1-2,1,10.89,10.89,0,0,1-2.4.14c-.86,0-1.72-.08-2.58-.14a11.31,11.31,0,0,0-2.54.1,19.06,19.06,0,0,1-1.38-1.53,6.26,6.26,0,0,1-1-1.82.51.51,0,0,1-.43-.62c0-.36-.11-.53-.43-.53a1.26,1.26,0,0,1,.1-.58c.06-.12.12-.25.19-.38.25-.19.36-.33.33-.43a.66.66,0,0,0-.29-.29,2.86,2.86,0,0,1-.47-.33.41.41,0,0,1-.15-.48,3.36,3.36,0,0,0,.34-2.06c-.1-.79-.18-1.61-.24-2.44a6.92,6.92,0,0,1,.19-2.34,3.1,3.1,0,0,1,1.63-1.87,23.56,23.56,0,0,0,7.41-.38A35.94,35.94,0,0,0,255.16,69,61.63,61.63,0,0,0,261.09,66c1.88-1,3.72-2,5.5-2.91a4.26,4.26,0,0,1,.91-1.63q.63-.68,1.29-1.29A12.17,12.17,0,0,0,270,58.86a4.87,4.87,0,0,0,.86-1.77.93.93,0,0,0,0-.58.83.83,0,0,0-.29-.33,3.88,3.88,0,0,1-.38-.34.76.76,0,0,1-.19-.57l-.53-.19a1.06,1.06,0,0,0-.43-.1,34.33,34.33,0,0,0-5.26-2.1A25.81,25.81,0,0,1,259.13,51a2.52,2.52,0,0,1-2.3.38c-.76-.25-1.69-.51-2.77-.76a67.75,67.75,0,0,1-7.61-.77,29,29,0,0,1-6.94-2,4.42,4.42,0,0,0-.48-1c-.19-.29-.64-.37-1.34-.24a19.79,19.79,0,0,0-1.39-1.77A10.45,10.45,0,0,1,235,42.92Z" transform="translate(-8.66 -13.81)" style="fill: #FFFFFF"/>
    <path d="M339.23,76.8a7.52,7.52,0,0,1-2.68,6.89,10.43,10.43,0,0,1-3.06,1.82c-1.15.45-2.27.86-3.35,1.24-.51-.32-1-.65-1.48-1a5.46,5.46,0,0,0-1.68-.81c-.83-1.54-1.62-2.89-2.39-4.07a6.7,6.7,0,0,1-1-4.07c0-.06,0-.41.14-1s.22-1.34.38-2.11.29-1.48.39-2.15.14-1,.14-1.1a21.14,21.14,0,0,0-4.59,1,38.94,38.94,0,0,0-4.65,1.81q-2.25,1.07-4.21,2.11c-1.31.7-2.37,1.31-3.2,1.82a6.19,6.19,0,0,1-.39,1.39,21.1,21.1,0,0,1-.95,2.29,15.73,15.73,0,0,1-1.25,2.16c-.44.63-.89.95-1.34.95a2.62,2.62,0,0,0,.29.58.78.78,0,0,1,0,.76,10.17,10.17,0,0,0-2.39,1,14.79,14.79,0,0,1-2.2,1,6.32,6.32,0,0,1-5.65-.53,1.31,1.31,0,0,0-.48-1,8.08,8.08,0,0,0-1-.77l-.91-.57c-.26-.16-.38-.3-.38-.43-.33.06-.45-.16-.39-.67s.32-.64.77-.38a6.26,6.26,0,0,1-1.29-2.35,10.59,10.59,0,0,0-1.1-2.53,1.88,1.88,0,0,0,.33-.67q.15-.48.24-.87a1.18,1.18,0,0,1,.29-.57c.12-.13.28-.1.48.1a2.68,2.68,0,0,1,0-1.44c.12-.38.25-.73.38-1a5.85,5.85,0,0,0,.29-1,1.44,1.44,0,0,0-.29-1A11.45,11.45,0,0,0,293,67a30.31,30.31,0,0,0,.57-4.45,5.81,5.81,0,0,0,1.2-1.91,14.7,14.7,0,0,0,.81-2.54,9.82,9.82,0,0,0,.24-2.49,6.43,6.43,0,0,0-.33-2c.06-.32.41-.41,1.05-.29a61,61,0,0,0,.81-7.13,75.74,75.74,0,0,1,.82-7.56,22.26,22.26,0,0,1,1.91-6.31,6.64,6.64,0,0,1,4.31-3.59,14.66,14.66,0,0,0,1.48,3.54,28,28,0,0,0,2,2.92c.73.92,1.47,1.86,2.2,2.82a23.07,23.07,0,0,1,2.06,3.26c-.07,1.21-.19,2.61-.38,4.21s-.44,3.22-.72,4.88-.58,3.25-.86,4.78-.56,2.84-.82,3.93a.66.66,0,0,0,.53.57c.29.06.33.35.14.86,1.53-.38,3.13-.73,4.79-1.05s3.31-.67,5-1,3.27-.82,4.84-1.3A24.14,24.14,0,0,0,329,55.36c.32-2.48.73-5,1.25-7.46a22.08,22.08,0,0,0,.19-7.66,2.73,2.73,0,0,0,.76-1,1.45,1.45,0,0,1,1-.77,12.39,12.39,0,0,1-.38-3.83,13.53,13.53,0,0,1,.72-3.83,8.5,8.5,0,0,1,1.81-3.11,5.49,5.49,0,0,1,2.92-1.67,19.47,19.47,0,0,1,1.82,3.3c.51,1.18,1,2.36,1.58,3.54s1.12,2.3,1.72,3.35A9.74,9.74,0,0,0,344.69,39q.29,2.78.43,5.74t.24,6q-.76,3.65-1.68,7A45.71,45.71,0,0,0,342.39,65a5.72,5.72,0,0,0-1.05,1.72c-.26.64-.51,1.29-.77,2a16.7,16.7,0,0,1-.86,1.92,6.42,6.42,0,0,1-1.15,1.58,3.91,3.91,0,0,1,.15,2.15A3.55,3.55,0,0,0,339.23,76.8Z" transform="translate(-8.66 -13.81)" style="fill: #FFFFFF"/>
    <path d="M402.62,57.37a6.18,6.18,0,0,0,.19,2.2,16.15,16.15,0,0,0,.71,2.06c.29.67.56,1.36.82,2.06a13.46,13.46,0,0,1,.57,2.11,10.89,10.89,0,0,1,0,2.91,16.45,16.45,0,0,1-.67,3.07A11.57,11.57,0,0,1,403,74.46a5.19,5.19,0,0,1-1.82,1.77,9.43,9.43,0,0,1-3.25,2.68,19.06,19.06,0,0,0-3.55,2.29,7.13,7.13,0,0,1-2.34,1l-2.63.57a26.75,26.75,0,0,1-2.49,1.2c-1,.42-1.95.8-3,1.15a17.11,17.11,0,0,1-3.06.76,11.12,11.12,0,0,1-2.68.15,25.61,25.61,0,0,1-5.6,1.39,19.71,19.71,0,0,1-6.36-.43,16.37,16.37,0,0,1-6.37-.29,14.73,14.73,0,0,1-5.16-2.44,18.29,18.29,0,0,1-3.93-4,24.35,24.35,0,0,1-2.73-4.93,25.31,25.31,0,0,1,.39-9.91,33.27,33.27,0,0,1,3.3-8.23,43.39,43.39,0,0,1,4.93-7c1.85-2.14,3.63-4.23,5.36-6.27a1,1,0,0,0,.91-.05,2.53,2.53,0,0,0,.62-.67,7.21,7.21,0,0,1,.62-.81,1.37,1.37,0,0,1,.81-.48,4.54,4.54,0,0,1,2-2.15,5.34,5.34,0,0,0,2-2.06,4.13,4.13,0,0,0,1.44-.58,8.84,8.84,0,0,0,1.1-.86c.35-.32.72-.62,1.1-.91a3.84,3.84,0,0,1,1.34-.62v-1a6.76,6.76,0,0,0,2.54-1.77l2-2.44a11.68,11.68,0,0,1,1.39-.1,9.31,9.31,0,0,0,1.57-.19,11.69,11.69,0,0,1,1.39-2,9.45,9.45,0,0,1,1.87-1.43,8.2,8.2,0,0,0,2.53.76,4.2,4.2,0,0,1,2.45,1.25,2.49,2.49,0,0,0,.57,1.48,8,8,0,0,0,1.05,1,13.88,13.88,0,0,1,1.1.9,2.52,2.52,0,0,1,.72,1.34c.25.07.43,0,.53-.09s.27-.16.52-.1a4.18,4.18,0,0,0,.67,1.77,4.9,4.9,0,0,1,.77,1.68,9.08,9.08,0,0,0-.72,2,2.13,2.13,0,0,1-1.2,1.48q-.09.67.39.72a.59.59,0,0,1,.57.53,1.45,1.45,0,0,1-.29,1.24,62.09,62.09,0,0,1,4.12,7.9A62.64,62.64,0,0,0,402.62,57.37Zm-11.52,9.1a5,5,0,0,1,1-1.73,3.25,3.25,0,0,0,.72-2,4.28,4.28,0,0,1-.58-1.19,7.59,7.59,0,0,1-.09-1.39,37.28,37.28,0,0,1-3.64-6.37,48.26,48.26,0,0,0-3.45-6.36,2.31,2.31,0,0,1-.67.77c-.32.25-.67.19-1-.2a1.78,1.78,0,0,1-.67,1.1,1.53,1.53,0,0,1-1.05.29,4,4,0,0,1-1.2-.29,3.82,3.82,0,0,1-1.1-.62q-2.77,2.2-5.55,4.31a27.7,27.7,0,0,0-5,4.88c-.25.13-.41.18-.47.14s-.26,0-.58.15a16,16,0,0,1-1.86,3.3c-.74,1-1.46,2-2.16,3a20.75,20.75,0,0,0-1.82,3.26,11.12,11.12,0,0,0-.86,4,7.42,7.42,0,0,0,3.83,1.62,20.85,20.85,0,0,0,4.55.1,43,43,0,0,0,4.59-.62,22,22,0,0,1,4.16-.43,27.64,27.64,0,0,0,6.89-2.54Q388,68.1,391.1,66.47Z" transform="translate(-8.66 -13.81)" style="fill: #FFFFFF"/>
    <path d="M423.92,76.13a55,55,0,0,1-1.87,5.79A18,18,0,0,1,419.61,86a2,2,0,0,0-1.72.29,7.5,7.5,0,0,1-1.06.86,2.1,2.1,0,0,1-1.24,0,3.87,3.87,0,0,1-.67-.43,4.49,4.49,0,0,0-.72-.48,2.71,2.71,0,0,0-1.29-.24c-.13-.51-.27-1-.43-1.44s-.59-.6-1.29-.48a3.13,3.13,0,0,0,.09-1.29,5.72,5.72,0,0,0-.24-1q-.14-.43-.24-.87a2.34,2.34,0,0,1,.1-1.1c-.32,0-.57-.22-.77-.67a12.87,12.87,0,0,0-.67-1.34c.2-1.14.39-2.23.58-3.25a22.7,22.7,0,0,1,.72-2.87c.28-.89.52-1.79.71-2.68a4.67,4.67,0,0,0-.28-2.78c.25.2.44.15.57-.14a4.45,4.45,0,0,0,.29-1.15,11.56,11.56,0,0,0,.09-1.43,6.67,6.67,0,0,0-.09-1.2,40,40,0,0,0,1.58-5.12q.62-2.62,1.15-5.22c.35-1.72.71-3.41,1.1-5.07a23.77,23.77,0,0,1,1.53-4.59,4.65,4.65,0,0,1,2.34.24,2.4,2.4,0,0,1,1.58,1.1,21.16,21.16,0,0,0,4.4-4.64q1.92-2.73,3.93-5.32a28.91,28.91,0,0,1,4.45-4.59,11.22,11.22,0,0,1,6.17-2.39q1.92,1.44,4.26,2.92a12.68,12.68,0,0,1,3.88,3.87,7,7,0,0,1,1.29.82,13.89,13.89,0,0,0,1.29.91v1.14a8.87,8.87,0,0,1,1.87,2.44,26.83,26.83,0,0,1,1.29,3L455.31,45a21.5,21.5,0,0,0,1.34,3,2.26,2.26,0,0,0-.19.82,2,2,0,0,0,.14.72c.09.25.17.51.24.76a3,3,0,0,1,0,1.05,10.58,10.58,0,0,1-2.73,6.8,20.2,20.2,0,0,1-5.89,4.26,47,47,0,0,1-7.36,2.82,66.62,66.62,0,0,0-7.09,2.49c0,.26.11.38.34.38s.3.16.24.48c1.53,1,2.74,1.72,3.63,2.3a24.28,24.28,0,0,0,2.54,1.43,18.71,18.71,0,0,0,2.58,1c.93.28,2.22.62,3.88,1l3.88.91c.92.23,1.77.42,2.53.58s1.55.28,2.35.38,1.93.21,3.39.33a8.38,8.38,0,0,1,1.49,2.06,8.14,8.14,0,0,1,.81,2.39,9.49,9.49,0,0,1,.1,2.3,3.08,3.08,0,0,1-.67,1.77.34.34,0,0,0,.43.24,2,2,0,0,1,.72,0,3.14,3.14,0,0,0-1,1l-.77,1.14a5,5,0,0,1-.86,1,2.35,2.35,0,0,1-1.34.53,13,13,0,0,1-7.46.14,82,82,0,0,1-11.39-3.69c-2.3-.89-4.16-1.67-5.6-2.34a32.26,32.26,0,0,1-3.73-2A22.36,22.36,0,0,1,427,78.91ZM438,43.3a18.17,18.17,0,0,1-2.35,2.78c-.86.83-1.69,1.68-2.48,2.54A17.38,17.38,0,0,0,431,51.49a10.8,10.8,0,0,0-1.34,3.68,26.36,26.36,0,0,0,7-1.86l6.89-2.83a8.46,8.46,0,0,0-2.06-4.78A8.33,8.33,0,0,0,438,43.3Z" transform="translate(-8.66 -13.81)" style="fill: #FFFFFF"/>
    <path d="M513.3,39.7a44.2,44.2,0,0,0-5.18.33q-2.79.34-5.47.72-1.92.28-3.69.48c-1.19.13-2.26.23-3.22.29-.45,1.41-.89,2.65-1.34,3.74s-.93,2.14-1.44,3.17-1,2.19-1.39,3.31-.82,2.32-1.2,3.6a27.36,27.36,0,0,0-1.58,2.83,13.71,13.71,0,0,0-1,2.92,10.52,10.52,0,0,0-1.73,3,27.94,27.94,0,0,0-.86,2.73L484.8,68a2.62,2.62,0,0,0-.67.91,1.17,1.17,0,0,1-.48.63,5.41,5.41,0,0,1-.67,2.11,5.28,5.28,0,0,0-.29.91,3.54,3.54,0,0,0-.09.63c0,.64-.16,1-.48,1.24a2.85,2.85,0,0,1,0,1c-.07.35-.13.69-.2,1a5.12,5.12,0,0,0-.19,1.82c.19.26.37.48.53.67a1.77,1.77,0,0,1,.34.77,3.8,3.8,0,0,0,.86.48,7.33,7.33,0,0,0,1.15.67l.86,1a5.24,5.24,0,0,1-.86,4.42q-1.44,1.82-4.89,1.82h-1.15a2.19,2.19,0,0,1-.58-.77l-1.25-.48a1.88,1.88,0,0,1-.86-.77c-.83-.38-1.51-.7-2-1L473,84.6v-.91a20.62,20.62,0,0,1-.79-1.91,16.23,16.23,0,0,1-.52-2.11c-.13-.57-.28-1.11-.44-1.62a5,5,0,0,0-.62-1.34,27.45,27.45,0,0,1,1.06-9.38c.82-2.55,1.69-5,2.58-7.37.51-1.28,1-2.57,1.53-3.88A39.57,39.57,0,0,0,477.14,52l.86-.95c.45-1,.82-1.87,1.1-2.54s.59-1.35.91-2.06c.19-.44.37-.87.53-1.29s.3-.78.43-1.1c-.38,0-.74,0-1.05,0s-.64.08-1,.14-.74.11-1,.15-.64,0-1,0a3.56,3.56,0,0,1-1-.09,1.85,1.85,0,0,1-2.29-.3h-1c-.19.78-.37.76-.53.73a2.37,2.37,0,0,0-.43,0,5.68,5.68,0,0,0-1.53.32h-3.06a3.38,3.38,0,0,0-.49,0,3.64,3.64,0,0,1-.5,0,8,8,0,0,1-1.48-.15,5.63,5.63,0,0,1-1.67-.64c-.79-1-1.32-1.61-1.58-1.68l-.89-1.18a6,6,0,0,0-.29-1.13c-.13-.36-.27-.78-.4-1.24-.26-.65-.51-1.36-.74-2.12a9.36,9.36,0,0,1-.34-2.71,2.51,2.51,0,0,1,.39-1.18c.2-.26.36-.49.5-.69L460,31l1.28.1h2.52q3.06,0,6.24-.24t6.52-.53l3.89-.38,4.08-.39c.25-.57.51-1.12.76-1.63l1-.48a4,4,0,0,1,2.45.43,11.28,11.28,0,0,1,1.2,1c1.4-.13,2.83-.27,4.27-.43s2.89-.37,4.37-.62q3.25-.48,6.57-.87a56.75,56.75,0,0,1,6.38-.38c.89,0,1.76,0,2.59.09s1.6.17,2.3.29l1,.67a3.74,3.74,0,0,0,.82,1.06c.35.32.72.64,1.1,1a21.74,21.74,0,0,1,2.31,2.49,5.73,5.73,0,0,1,.86,4.23,4.56,4.56,0,0,1-1.15,1.34l-.87,1.15-1-.09a3.51,3.51,0,0,0-1.05.14c-.32.1-.64.21-1,.34s-.51.24-.77.33a4.63,4.63,0,0,1-.86.24,13.17,13.17,0,0,1-1.39,0C514.05,39.71,513.69,39.7,513.3,39.7Z" transform="translate(-8.66 -13.81)" style="fill: #FFFFFF"/>
    <path d="M559.35,32.09a4.23,4.23,0,0,1,0,1c0,.22-.07.43-.1.62a4,4,0,0,0,0,.62,4.06,4.06,0,0,0,.2,1,11,11,0,0,1-4.65,4.45,23,23,0,0,1-5.69,1.72l-6.27,1.1a18.38,18.38,0,0,0-6.36,2.49,2.75,2.75,0,0,0-2.25,0,5.65,5.65,0,0,1-2.92.29,3.19,3.19,0,0,1-1.44.81c-.57.16-1.15.34-1.72.53a3.89,3.89,0,0,1,.34,1.77,2.89,2.89,0,0,0,.23,1.48,41.36,41.36,0,0,0,7.42-.1c2.71-.25,5.38-.41,8-.47.07.32,0,.52-.09.62s-.16.27-.1.52a9.05,9.05,0,0,1,1.34,1.2c.45.48.89.94,1.34,1.39a7.29,7.29,0,0,0,1.39,1.1,2.58,2.58,0,0,0,1.67.33,5.79,5.79,0,0,1,.53,1.68,3.51,3.51,0,0,1-.24,1.87c-1,.7-2,1.42-3.06,2.15a25,25,0,0,1-3.21,2,19.16,19.16,0,0,1-3.54,1.39,13.38,13.38,0,0,1-4.16.43h-.72a1.16,1.16,0,0,1-.62-.29,3.2,3.2,0,0,1-2.16.29,3.18,3.18,0,0,0-2.15.29,5.52,5.52,0,0,0-2.53-.43,7.52,7.52,0,0,1-2.64-.34,33.37,33.37,0,0,0-2.77,4.31,36.72,36.72,0,0,0-2.2,4.88,28.72,28.72,0,0,0,5.4.38c1.44-.06,2.79-.17,4.07-.33l3.93-.48a35.26,35.26,0,0,1,5.07-.15,12.61,12.61,0,0,1,4.54-1.38,24.38,24.38,0,0,0,4.84-1.1,3.12,3.12,0,0,1,1.34,1c.38.48.75.93,1.1,1.34a8.16,8.16,0,0,0,1.1,1.1,1.79,1.79,0,0,0,1.43.38,2,2,0,0,1,.53.91c.1.35.17.69.24,1a2,2,0,0,0,.33.81.78.78,0,0,0,.82.24,14.39,14.39,0,0,1-3.3,4.83,12.8,12.8,0,0,1-4.26,2.54,30.72,30.72,0,0,1-5.31,1.34c-2,.32-4.11.7-6.46,1.15a2.44,2.44,0,0,1-1.44,0,3.45,3.45,0,0,0-1.34-.24q-2.21.48-5.26.86a40.2,40.2,0,0,1-6.22.29,29.24,29.24,0,0,1-6-.81,9.85,9.85,0,0,1-4.69-2.54,3.15,3.15,0,0,1-1-1.58,2.13,2.13,0,0,0-1.29-1.39,25.25,25.25,0,0,0-.38-2.77c-.19-1-.39-2.09-.58-3.21s-.33-2.22-.43-3.3a9.91,9.91,0,0,1,.15-3,5.92,5.92,0,0,1,1.19-2.58,2.84,2.84,0,0,0,.62-2.49.67.67,0,0,0,.58-.53c.06-.28.32-.39.76-.33.39-1.15.8-2.23,1.25-3.25s.91-2,1.39-3l1.43-2.92c.48-1,.94-2.09,1.39-3.3a7.75,7.75,0,0,1-2-2.73,14.66,14.66,0,0,1-.91-3q-.29-1.48-.48-3.06a20.18,20.18,0,0,0-.67-3.21A8.41,8.41,0,0,1,514,36a13.66,13.66,0,0,1,3-1.48,25.23,25.23,0,0,1,3.54-1c1.28-.25,2.62-.54,4-.86q3.82-1.25,6.84-1.92t5.94-1.1c1.94-.28,4-.55,6.07-.81s4.5-.64,7.18-1.15a2.39,2.39,0,0,0,1.63.86c.25-.57.56-.75.91-.52s.49,0,.43-.53a9,9,0,0,0,2.44,2.73A16,16,0,0,0,559.35,32.09Z" transform="translate(-8.66 -13.81)" style="fill: #FFFFFF"/>
    <path d="M576.67,68.67a1.7,1.7,0,0,0-1.24,1q-.39.81-.72,1.68c-.22.57-.45,1.1-.67,1.58a1.08,1.08,0,0,1-1,.71,2.79,2.79,0,0,1-.53,1.34,14,14,0,0,0-.81,1.2,4.86,4.86,0,0,0-.58,1.34,2.66,2.66,0,0,0,.19,1.67,2.5,2.5,0,0,0-.95,1.63c-.13.7-.28,1.37-.44,2a4,4,0,0,1-.81,1.63A2.46,2.46,0,0,1,567,85c-.2.26-.23.42-.1.48s.22.29.29.67a2.23,2.23,0,0,0-1.58.14,2.94,2.94,0,0,1-1.29.43,6.26,6.26,0,0,1-3-2,16.69,16.69,0,0,1-2.1-3.2c-.61-1.18-1.15-2.38-1.63-3.59s-.94-2.27-1.39-3.16a4.51,4.51,0,0,0,.1-2.06,4.21,4.21,0,0,0-.67-1.67q4.68-10,10.24-21.25t10.52-22.3c1.47.58,2.92,1.23,4.36,2A22.12,22.12,0,0,1,584.66,32a15,15,0,0,1,3,3.3,10.51,10.51,0,0,1,1.62,4.17c-.12.38-.27.52-.43.43s-.3,0-.43.14a2.18,2.18,0,0,1,.43.67.62.62,0,0,1,0,.38,2.53,2.53,0,0,0,0,.53,2.21,2.21,0,0,0,.28.91c-.25-.06-.43,0-.52.09s-.31.13-.63,0a3.18,3.18,0,0,1,.24,1.73,4.3,4.3,0,0,1-.43,1.19,7,7,0,0,0-.48,1.15,2.85,2.85,0,0,0,.1,1.58.58.58,0,0,0-.43.15,1.49,1.49,0,0,0-.24.28,1.53,1.53,0,0,1-.24.29.41.41,0,0,1-.43,0,23.75,23.75,0,0,1,.19,4.21c-.06,1.4-.11,2.82-.14,4.26s0,2.93,0,4.49a25.35,25.35,0,0,0,.67,4.84,16.17,16.17,0,0,0,5.5-5.17,30.41,30.41,0,0,0,3.35-7.08,51.38,51.38,0,0,0,2-8.42c.45-3,.92-6.06,1.44-9.19a6.1,6.1,0,0,0,1.34-2.11c.31-.83.6-1.7.86-2.63l.76-2.77a14.58,14.58,0,0,1,1-2.54,5.34,5.34,0,0,1,2.44.91,18.83,18.83,0,0,1,1.87,1.53,20.73,20.73,0,0,0,1.82,1.53,5,5,0,0,0,2.39.91c.76,1.09,1.46,2.14,2.1,3.16a8.75,8.75,0,0,1,1.25,3.25,6,6,0,0,0-.72,1.73c-.16.63-.34,1.27-.53,1.91a7.81,7.81,0,0,1-.76,1.77A4.42,4.42,0,0,1,611.51,45c-.19,1.66-.43,3.17-.72,4.54s-.57,2.73-.86,4.07-.53,2.73-.72,4.16a28.74,28.74,0,0,0-.19,4.74l-1.63,4.69c-.57,1.66-1,3.16-1.34,4.5a8.89,8.89,0,0,0-2.39,3c-.57,1.14-1.18,2.29-1.82,3.44-.25.26-.41.32-.48.19s-.28-.22-.67-.28a.78.78,0,0,1,0,.57,1,1,0,0,1-.24.33.82.82,0,0,0-.19.43,1.53,1.53,0,0,0,.15.77,7.51,7.51,0,0,0-2.4,1.63,17.75,17.75,0,0,1-2.25,1.91,6.65,6.65,0,0,1-2.87,1.15,9,9,0,0,1-4.35-.67,36.84,36.84,0,0,1-6.94-6.6A31.57,31.57,0,0,1,576.67,68.67Z" transform="translate(-8.66 -13.81)" style="fill: #FFFFFF"/>
    <path d="M665.77,32.09a4.23,4.23,0,0,1,.05,1c0,.22-.07.43-.1.62a4,4,0,0,0,0,.62,3.94,3.94,0,0,0,.19,1,11,11,0,0,1-4.64,4.45,23.18,23.18,0,0,1-5.7,1.72l-6.27,1.1a18.38,18.38,0,0,0-6.36,2.49,2.75,2.75,0,0,0-2.25,0,5.63,5.63,0,0,1-2.92.29,3.19,3.19,0,0,1-1.44.81c-.57.16-1.14.34-1.72.53a3.76,3.76,0,0,1,.34,1.77,2.88,2.88,0,0,0,.24,1.48,41.26,41.26,0,0,0,7.41-.1c2.71-.25,5.38-.41,8-.47.07.32,0,.52-.09.62s-.16.27-.1.52a8.58,8.58,0,0,1,1.34,1.2c.45.48.9.94,1.34,1.39a7.29,7.29,0,0,0,1.39,1.1,2.61,2.61,0,0,0,1.68.33,5.78,5.78,0,0,1,.52,1.68,3.42,3.42,0,0,1-.24,1.87c-1,.7-2,1.42-3.06,2.15a25,25,0,0,1-3.21,2,18.88,18.88,0,0,1-3.54,1.39,13.38,13.38,0,0,1-4.16.43h-.72a1.16,1.16,0,0,1-.62-.29,3.18,3.18,0,0,1-2.15.29,3.2,3.2,0,0,0-2.16.29,5.49,5.49,0,0,0-2.53-.43,7.43,7.43,0,0,1-2.63-.34,32.4,32.4,0,0,0-2.78,4.31,38,38,0,0,0-2.2,4.88,28.76,28.76,0,0,0,5.41.38c1.43-.06,2.79-.17,4.06-.33l3.93-.48a35.31,35.31,0,0,1,5.07-.15,12.67,12.67,0,0,1,4.55-1.38,24.44,24.44,0,0,0,4.83-1.1,3.06,3.06,0,0,1,1.34,1c.38.48.75.93,1.1,1.34a8.79,8.79,0,0,0,1.1,1.1,1.8,1.8,0,0,0,1.44.38,2,2,0,0,1,.52.91c.1.35.18.69.24,1a2,2,0,0,0,.34.81.77.77,0,0,0,.81.24,14.39,14.39,0,0,1-3.3,4.83,12.8,12.8,0,0,1-4.26,2.54,30.72,30.72,0,0,1-5.31,1.34q-2.93.48-6.46,1.15a2.44,2.44,0,0,1-1.44,0,3.45,3.45,0,0,0-1.34-.24q-2.21.48-5.26.86a40.14,40.14,0,0,1-6.22.29,29.24,29.24,0,0,1-6-.81,9.85,9.85,0,0,1-4.69-2.54,3.15,3.15,0,0,1-1-1.58,2.13,2.13,0,0,0-1.29-1.39,25.25,25.25,0,0,0-.38-2.77c-.19-1-.38-2.09-.58-3.21s-.33-2.22-.43-3.3a10.25,10.25,0,0,1,.15-3,6,6,0,0,1,1.19-2.58,2.88,2.88,0,0,0,.63-2.49.66.66,0,0,0,.57-.53c.06-.28.32-.39.77-.33.38-1.15.79-2.23,1.24-3.25s.91-2,1.39-3,1-1.93,1.43-2.92.94-2.09,1.39-3.3a7.87,7.87,0,0,1-2-2.73,14.66,14.66,0,0,1-.91-3q-.28-1.48-.48-3.06a20.18,20.18,0,0,0-.67-3.21A8.31,8.31,0,0,1,620.46,36a13.38,13.38,0,0,1,3-1.48,25.23,25.23,0,0,1,3.54-1c1.28-.25,2.62-.54,4-.86q3.83-1.25,6.84-1.92t5.94-1.1c1.94-.28,4-.55,6.07-.81s4.5-.64,7.18-1.15a2.41,2.41,0,0,0,1.63.86c.25-.57.56-.75.91-.52s.49,0,.43-.53a9.13,9.13,0,0,0,2.44,2.73A16,16,0,0,0,665.77,32.09Z" transform="translate(-8.66 -13.81)" style="fill: #FFFFFF"/>
    <path d="M677.92,76.13a55,55,0,0,1-1.87,5.79A18,18,0,0,1,673.61,86a2,2,0,0,0-1.72.29,7.5,7.5,0,0,1-1.06.86,2.1,2.1,0,0,1-1.24,0,3.87,3.87,0,0,1-.67-.43,4.49,4.49,0,0,0-.72-.48,2.71,2.71,0,0,0-1.29-.24c-.13-.51-.27-1-.43-1.44s-.59-.6-1.29-.48a3.13,3.13,0,0,0,.09-1.29,5.72,5.72,0,0,0-.24-1q-.13-.43-.24-.87a2.34,2.34,0,0,1,.1-1.1c-.32,0-.57-.22-.77-.67a12.87,12.87,0,0,0-.67-1.34c.2-1.14.39-2.23.58-3.25a22.7,22.7,0,0,1,.72-2.87c.28-.89.52-1.79.71-2.68a4.67,4.67,0,0,0-.28-2.78c.25.2.44.15.57-.14a4.45,4.45,0,0,0,.29-1.15,11.56,11.56,0,0,0,.09-1.43,6.67,6.67,0,0,0-.09-1.2,40,40,0,0,0,1.58-5.12q.61-2.62,1.15-5.22c.35-1.72.71-3.41,1.1-5.07a23.77,23.77,0,0,1,1.53-4.59,4.65,4.65,0,0,1,2.34.24,2.4,2.4,0,0,1,1.58,1.1,21.16,21.16,0,0,0,4.4-4.64q1.92-2.73,3.93-5.32a28.91,28.91,0,0,1,4.45-4.59,11.22,11.22,0,0,1,6.17-2.39q1.92,1.44,4.26,2.92a12.68,12.68,0,0,1,3.88,3.87,7,7,0,0,1,1.29.82,13.89,13.89,0,0,0,1.29.91v1.14a8.87,8.87,0,0,1,1.87,2.44,26.83,26.83,0,0,1,1.29,3L709.31,45a21.5,21.5,0,0,0,1.34,3,2.26,2.26,0,0,0-.19.82,2,2,0,0,0,.14.72c.09.25.17.51.24.76a3,3,0,0,1,0,1.05,10.58,10.58,0,0,1-2.73,6.8,20.2,20.2,0,0,1-5.89,4.26,47,47,0,0,1-7.36,2.82,66.62,66.62,0,0,0-7.09,2.49c0,.26.11.38.34.38s.3.16.24.48c1.53,1,2.74,1.72,3.63,2.3a24.28,24.28,0,0,0,2.54,1.43,18.71,18.71,0,0,0,2.58,1c.93.28,2.22.62,3.88,1l3.88.91c.92.23,1.77.42,2.53.58s1.55.28,2.35.38,1.93.21,3.39.33a8.38,8.38,0,0,1,1.49,2.06,8.14,8.14,0,0,1,.81,2.39,9.49,9.49,0,0,1,.1,2.3,3.08,3.08,0,0,1-.67,1.77.34.34,0,0,0,.43.24,2,2,0,0,1,.72,0,3.14,3.14,0,0,0-1,1l-.77,1.14a5,5,0,0,1-.86,1,2.35,2.35,0,0,1-1.34.53,13,13,0,0,1-7.46.14,82,82,0,0,1-11.39-3.69c-2.3-.89-4.16-1.67-5.6-2.34a32.26,32.26,0,0,1-3.73-2A22.36,22.36,0,0,1,681,78.91ZM691.61,43.3a17.57,17.57,0,0,1-2.34,2.78c-.86.83-1.69,1.68-2.49,2.54a16.79,16.79,0,0,0-2.15,2.87,10.59,10.59,0,0,0-1.34,3.68,26.2,26.2,0,0,0,7-1.86l6.89-2.83a8.4,8.4,0,0,0-2.06-4.78A8.27,8.27,0,0,0,691.61,43.3Z" transform="translate(-8.66 -13.81)" style="fill: #FFFFFF"/>
  </g>
</svg>
